<svg width="24" height="24" viewBox="0 0 24 24" fill="none" xmlns="http://www.w3.org/2000/svg">
<g clip-path="url(#clip0_15126_80151)">
<circle cx="12" cy="12" r="11" stroke="#2E2D30" stroke-width="1.5"/>
<path d="M8.14009 15.982C6.87509 15.982 5.94009 15.366 5.62109 14.497L6.76509 14.068C6.95209 14.376 7.26009 14.871 8.06309 14.871C8.89909 14.871 9.42709 14.343 9.42709 13.606C9.42709 12.836 8.82209 12.33 7.53509 12.33H7.18309V11.274H7.53509C8.65709 11.274 9.26209 10.878 9.26209 10.185C9.26209 9.602 8.77809 9.129 8.04109 9.129C7.55709 9.129 7.08409 9.338 6.80909 9.877L5.69809 9.47C6.03909 8.546 7.00709 8.018 8.08509 8.018C9.48209 8.018 10.5491 8.898 10.5491 10.086C10.5491 10.878 10.0541 11.45 9.30609 11.78C10.1531 12.165 10.7141 12.847 10.7141 13.738C10.7141 15.124 9.52609 15.982 8.14009 15.982Z" fill="#2E2D30"/>
<path d="M12.0757 15.85V8.15H14.4957C16.7617 8.15 18.3787 9.734 18.3787 12C18.3787 14.255 16.7617 15.85 14.4957 15.85H12.0757ZM14.4957 9.338H13.3517V14.662H14.4957C15.9477 14.662 17.0807 13.496 17.0807 12C17.0807 10.504 15.9477 9.338 14.4957 9.338Z" fill="#2E2D30"/>
</g>
<defs>
<clipPath id="clip0_15126_80151">
<rect width="24" height="24" fill="white"/>
</clipPath>
</defs>
</svg>
