<svg width="24" height="24" viewBox="0 0 24 24" fill="none" xmlns="http://www.w3.org/2000/svg">
<path d="M17.0117 5.975C16.4003 5.975 15.85 5.60386 15.621 5.03693L15.379 4.4381C15.15 3.87118 14.5997 3.50004 13.9883 3.50004H10.0117C9.40029 3.50004 8.85004 3.87118 8.62098 4.4381L8.37902 5.03693C8.14996 5.60386 7.59971 5.975 6.98826 5.975H2.5C1.67157 5.975 1 6.64657 1 7.475V18.5C1 19.3285 1.67157 20 2.5 20H21.5C22.3284 20 23 19.3285 23 18.5V7.475C23 6.64657 22.3284 5.975 21.5 5.975H17.0117Z" stroke="#2E2D30" stroke-width="1.5" stroke-linecap="round" stroke-linejoin="round"/>
<path d="M12 17C14.2091 17 16 15.2091 16 13C16 10.7909 14.2091 9 12 9C9.79086 9 8 10.7909 8 13C8 15.2091 9.79086 17 12 17Z" stroke="#2E2D30" stroke-width="1.5" stroke-linecap="round" stroke-linejoin="round"/>
<path d="M19 9H20.31" stroke="#2E2D30" stroke-width="1.5" stroke-linecap="round" stroke-linejoin="round"/>
</svg>
