<svg width="24" height="24" viewBox="0 0 24 24" fill="none" xmlns="http://www.w3.org/2000/svg">
<path d="M7.5 21.5C7 19 5.88981 17.8898 5 17C4 16 2 14.5 2 10C2 6 4.5 1.5 11 1.5C17.5 1.5 20 6.5 20 9C20 10.0003 19.8749 10.7505 19.7499 11.2505C19.6298 11.7308 19.6438 12.2588 19.8842 12.6916L21.1808 15.0255C21.6155 15.8079 21.2649 16.7941 20.4339 17.1264V17.1264C19.8699 17.3521 19.5054 17.8994 19.4354 18.5028C19.3264 19.4427 19.0604 20.6594 18.5 21.5" stroke="#2E2D30" stroke-width="1.5" stroke-linecap="round"/>
<path d="M11.4395 5H10.5606C10.2118 5 9.90901 5.24045 9.83004 5.58019L9.65659 6.32637C9.56813 6.70691 9.20236 6.95581 8.81591 6.89842L7.53162 6.70773C7.23118 6.66312 6.9335 6.80412 6.77768 7.06483L6.28688 7.88605C6.11668 8.17083 6.15381 8.53361 6.37818 8.77801L7.03439 9.49282C7.29773 9.77967 7.29774 10.2203 7.03441 10.5072L6.37824 11.222C6.15389 11.4664 6.11676 11.8292 6.28696 12.114L6.77777 12.9352C6.93359 13.1959 7.23127 13.3369 7.53171 13.2923L8.8159 13.1016C9.20236 13.0442 9.56813 13.2931 9.65659 13.6736L9.83004 14.4198C9.90901 14.7595 10.2118 15 10.5606 15H11.4395C11.7883 15 12.0911 14.7595 12.1701 14.4198L12.3434 13.6737C12.4319 13.2931 12.7977 13.0442 13.1842 13.1016L14.4683 13.2923C14.7687 13.3369 15.0664 13.1959 15.2222 12.9352L15.713 12.114C15.8832 11.8292 15.8461 11.4665 15.6218 11.2221L14.9656 10.5072C14.7022 10.2203 14.7023 9.77968 14.9656 9.49283L15.6218 8.77795C15.8462 8.53354 15.8833 8.17078 15.7131 7.886L15.2223 7.06479C15.0665 6.80406 14.7688 6.66306 14.4684 6.70768L13.1841 6.8984C12.7977 6.95579 12.4319 6.70687 12.3434 6.3263L12.1701 5.58023C12.0911 5.24048 11.7883 5 11.4395 5Z" stroke="#2E2D30" stroke-width="1.5" stroke-linecap="round" stroke-linejoin="round"/>
</svg>
