<svg width="24" height="24" viewBox="0 0 24 24" fill="none" xmlns="http://www.w3.org/2000/svg">
<path d="M16 1V8M8 8V1M6 9.5V10.5C6 11.3284 6.67157 12 7.5 12H16.5C17.3284 12 18 11.3284 18 10.5V9.5C18 8.67157 17.3284 8 16.5 8H7.5C6.67157 8 6 8.67157 6 9.5Z" stroke="#2E2D30" stroke-width="1.5" stroke-linecap="round" stroke-linejoin="round"/>
<path d="M9.03375 20.4619C9.16331 21.3676 9.67231 22.1162 10.57 22.6429C10.9032 22.837 11.2733 22.9572 11.6528 22.9849C12.7078 23.0773 13.5685 22.7446 14.2163 22.0237C14.8178 21.3676 15.0677 20.582 14.9844 19.7041C14.9474 19.3159 14.8456 19.0294 14.8086 18.937C14.6883 18.632 14.5402 18.401 14.4291 18.2439C13.624 17.1626 12.8096 16.0813 12.0045 15L9.62604 18.1699C9.45946 18.3825 9.20958 18.7614 9.08002 19.3067C9.043 19.4545 8.95046 19.8981 9.03375 20.4619Z" stroke="#2E2D30" stroke-width="1.5" stroke-linecap="round" stroke-linejoin="round"/>
</svg>
