<svg width="24" height="24" viewBox="0 0 24 24" fill="none" xmlns="http://www.w3.org/2000/svg">
<path d="M1 17.5V4.5C1 3.67157 1.67157 3 2.5 3H21.5C22.3284 3 23 3.67157 23 4.5V17.5C23 18.3284 22.3284 19 21.5 19H10.6213C10.2235 19 9.84196 19.158 9.56066 19.4393L6 23V19H2.5C1.67157 19 1 18.3284 1 17.5Z" stroke="#2E2D30" stroke-width="1.5" stroke-linecap="round" stroke-linejoin="round"/>
<path d="M10 8.40476C10 7.64286 10.381 6.5 12.2857 6.5C14.1905 6.5 14.5714 7.64286 14.5714 8.40476C14.5714 10.3095 12.2857 10.3095 12.2857 12.2143M12.2857 14.7702C12.2857 14.7702 12.2857 14.7702 12.2857 15.1512" stroke="#2E2D30" stroke-width="1.5" stroke-linecap="round" stroke-linejoin="round"/>
</svg>
