<svg width="24" height="24" viewBox="0 0 24 24" fill="none" xmlns="http://www.w3.org/2000/svg">
<path d="M11.1552 15.4326C10.9244 15.2989 9.22325 14.5213 9.01669 12.1155C8.83443 10.0012 10.1589 7.89915 12.3217 7C12.0787 7.52248 11.5683 8.79831 12.0665 9.98908C12.1394 10.1713 12.5282 11.0948 13.075 11.0826C13.2694 11.0826 13.4153 10.9611 13.5975 10.791C14.0106 10.4387 14.1929 10.0134 14.278 9.74607C14.7518 10.5359 14.8612 11.2285 14.8855 11.6051C15.0313 13.5735 13.634 15.0195 13.3909 15.2868C13.3302 15.3476 13.2816 15.3962 13.2451 15.4326" stroke="#2E2D30" stroke-width="1.5" stroke-linecap="round" stroke-linejoin="round"/>
<path d="M8 20V23H16V20M4 1H20V20H4V1ZM6.625 3.5125H17.375V17.4875H6.625V3.5125Z" stroke="#2E2D30" stroke-width="1.5" stroke-linecap="round" stroke-linejoin="round"/>
</svg>
