<svg width="24" height="24" viewBox="0 0 24 24" fill="none" xmlns="http://www.w3.org/2000/svg">
<path d="M3 21H20.6198C21.3999 21 22.0498 20.402 22.1146 19.6246L22.8646 10.6246C22.9375 9.75004 22.2474 9 21.3698 9H21M3 21H2.5C1.67157 21 1 20.3284 1 19.5V7V4.5C1 3.67157 1.67157 3 2.5 3H8.19722C8.69875 3 9.1671 3.25065 9.4453 3.66795L10.5547 5.33205C10.8329 5.74935 11.3012 6 11.8028 6H19.5C20.3284 6 21 6.67157 21 7.5V9M3 21L3.88538 10.3754C3.95017 9.59799 4.60007 9 5.3802 9H21" stroke="#2E2D30" stroke-width="1.5" stroke-linejoin="round"/>
</svg>
