<svg width="24" height="24" viewBox="0 0 24 24" fill="none" xmlns="http://www.w3.org/2000/svg">
<path d="M10 9C10 4.5 13 3 16 3C19 3 22 4 22 9C22 13.5 20.3109 13.2363 18.5 15.5C16.5 18 17 21 14 21C11.2 21 10.8333 18.3333 11 17M13 15C15.5 15 16 14 16 13C16 11.8749 15.1999 11.3785 14.4261 11.1614C13.651 10.9441 12.9381 10.3635 13.0118 9.56187C13.1478 8.08469 13.74 6 16 6C19.5 6 19 9 18.5 10" stroke="#2E2D30" stroke-width="1.5" stroke-linecap="round"/>
<path d="M4.65696 7C7.78116 10.1242 7.78116 15.1895 4.65696 18.3137M2.53564 9.12132C4.48827 11.0739 4.48827 14.2398 2.53564 16.1924" stroke="#2E2D30" stroke-width="1.5" stroke-linecap="round"/>
</svg>
