<svg width="24" height="24" viewBox="0 0 24 24" fill="none" xmlns="http://www.w3.org/2000/svg">
<g clip-path="url(#clip0_20096_49514)">
<path d="M15 19H23M19 15V23" stroke="#2E2D30" stroke-width="1.5" stroke-linecap="round" stroke-linejoin="round"/>
<path d="M6.50001 18C7.88072 18 9 16.8807 9 15.5C9 14.1193 7.88072 13 6.50001 13C5.11929 13 4 14.1193 4 15.5C4 16.8807 5.11929 18 6.50001 18Z" stroke="#2E2D30" stroke-width="1.5" stroke-linecap="round" stroke-linejoin="round"/>
<path d="M17.5 12C18.8807 12 20 10.8807 20 9.5C20 8.11929 18.8807 7 17.5 7C16.1193 7 15 8.11929 15 9.5C15 10.8807 16.1193 12 17.5 12Z" stroke="#2E2D30" stroke-width="1.5" stroke-linecap="round" stroke-linejoin="round"/>
<path d="M1 23.04C1.86 21.79 2.64 20.75 3.5 19.5" stroke="#2E2D30" stroke-width="1.5" stroke-linecap="round" stroke-linejoin="round"/>
<path d="M20.5 5L23.04 1" stroke="#2E2D30" stroke-width="1.5" stroke-linecap="round" stroke-linejoin="round"/>
<path d="M11 13.0455L13 11.9545" stroke="#2E2D30" stroke-width="1.5" stroke-linecap="round" stroke-linejoin="round"/>
</g>
<defs>
<clipPath id="clip0_20096_49514">
<rect width="24" height="24" fill="white"/>
</clipPath>
</defs>
</svg>
