<svg width="24" height="24" viewBox="0 0 24 24" fill="none" xmlns="http://www.w3.org/2000/svg">
<path d="M20.4754 5.1273L17.4088 2.06066C16.823 1.47487 15.8733 1.47487 15.2875 2.06066L2.06079 15.2874C1.475 15.8731 1.475 16.8229 2.06079 17.4087L5.12743 20.4753C5.71322 21.0611 6.66296 21.0611 7.24875 20.4753L20.4754 7.24862C21.0612 6.66284 21.0612 5.71309 20.4754 5.1273Z" stroke="#2E2D30" stroke-width="1.5" stroke-linecap="round" stroke-linejoin="round"/>
<path d="M19.2093 7.97131L17.5352 6.29712" stroke="#2E2D30" stroke-width="1.5" stroke-linecap="round" stroke-linejoin="round"/>
<path d="M16.9735 10.2069L15.2993 8.53271" stroke="#2E2D30" stroke-width="1.5" stroke-linecap="round" stroke-linejoin="round"/>
<path d="M14.7382 12.4425L13.064 10.7683" stroke="#2E2D30" stroke-width="1.5" stroke-linecap="round" stroke-linejoin="round"/>
<path d="M12.5023 14.6781L10.8281 13.0039" stroke="#2E2D30" stroke-width="1.5" stroke-linecap="round" stroke-linejoin="round"/>
<path d="M10.2669 16.9036L8.60254 15.2393" stroke="#2E2D30" stroke-width="1.5" stroke-linecap="round" stroke-linejoin="round"/>
<path d="M8.04138 19.1393L6.36719 17.4651" stroke="#2E2D30" stroke-width="1.5" stroke-linecap="round" stroke-linejoin="round"/>
<path d="M23 15.5V12M23 12H19.5M23 12L12 23M12 23V19.5M12 23H15.5" stroke="#2E2D30" stroke-width="1.5" stroke-linecap="round"/>
</svg>
