<svg width="24" height="24" viewBox="0 0 24 24" fill="none" xmlns="http://www.w3.org/2000/svg">
<path d="M9 17H15M9 20H15M18 7H21.5C22.3284 7 23 7.67157 23 8.5V16.5C23 17.3284 22.3284 18 21.5 18H18M18 7V2.5C18 1.67157 17.3284 1 16.5 1H7.5C6.67157 1 6 1.67157 6 2.5V7M18 7H6M6 7H2.5C1.67157 7 1 7.67157 1 8.5V16.5C1 17.3284 1.67157 18 2.5 18H6M18 18V21.5C18 22.3284 17.3284 23 16.5 23H7.5C6.67157 23 6 22.3284 6 21.5V18M18 18V15.5C18 14.6716 17.3284 14 16.5 14H7.5C6.67157 14 6 14.6716 6 15.5V18" stroke="#2E2D30" stroke-width="1.5" stroke-linecap="round"/>
</svg>
