<svg width="24" height="24" viewBox="0 0 24 24" fill="none" xmlns="http://www.w3.org/2000/svg">
<path d="M3 10.5V21.5C3 22.3284 3.67157 23 4.5 23H19.5C20.3284 23 21 22.3284 21 21.5V10.5M3 10.5L10.9393 2.56066C11.5251 1.97487 12.4749 1.97487 13.0607 2.56066L21 10.5M3 10.5L1.5 12M21 10.5L22.5 12" stroke="#2E2D30" stroke-width="1.5" stroke-linecap="round" stroke-linejoin="round"/>
<path d="M7.05556 18.4444L6.5 19M7.05556 18.4444L8.72222 20.1111M7.05556 18.4444L8.91495 16.585M8.91495 16.585L10.0261 17.6962M8.91495 16.585L12.2322 13.2678M12.2322 13.2678C12.6846 13.7202 13.3096 14 14 14C15.3807 14 16.5 12.8807 16.5 11.5C16.5 10.1193 15.3807 9 14 9C12.6193 9 11.5 10.1193 11.5 11.5C11.5 12.1904 11.7798 12.8154 12.2322 13.2678Z" stroke="#2E2D30" stroke-width="1.5" stroke-linecap="round"/>
</svg>
