<svg width="24" height="24" viewBox="0 0 24 24" fill="none" xmlns="http://www.w3.org/2000/svg">
<path d="M1.75 12C1.75 11.5858 1.41421 11.25 1 11.25C0.585786 11.25 0.25 11.5858 0.25 12H1.75ZM2.15068 5.59037C1.92444 5.93734 2.02232 6.40202 2.3693 6.62825C2.71627 6.85449 3.18095 6.75661 3.40718 6.40963L2.15068 5.59037ZM3.25 1C3.25 0.585786 2.91421 0.25 2.5 0.25C2.08579 0.25 1.75 0.585786 1.75 1H3.25ZM2.5 6H1.75C1.75 6.41421 2.08579 6.75 2.5 6.75V6ZM7.5 6.75C7.91421 6.75 8.25 6.41421 8.25 6C8.25 5.58579 7.91421 5.25 7.5 5.25V6.75ZM22.25 12C22.25 17.6609 17.6609 22.25 12 22.25V23.75C18.4893 23.75 23.75 18.4893 23.75 12H22.25ZM12 22.25C6.33908 22.25 1.75 17.6609 1.75 12H0.25C0.25 18.4893 5.51065 23.75 12 23.75V22.25ZM12 1.75C17.6609 1.75 22.25 6.33908 22.25 12H23.75C23.75 5.51065 18.4893 0.25 12 0.25V1.75ZM3.40718 6.40963C5.23731 3.60275 8.4025 1.75 12 1.75V0.25C7.8744 0.25 4.24595 2.37684 2.15068 5.59037L3.40718 6.40963ZM1.75 1V6H3.25V1H1.75ZM2.5 6.75H7.5V5.25H2.5V6.75Z" fill="#2E2D30"/>
<path d="M15.0138 10.819C15.1971 10.511 15.4391 10.2727 15.7398 10.104C16.0478 9.92799 16.4108 9.83999 16.8288 9.83999V11.138H16.5098C16.0184 11.138 15.6444 11.2627 15.3878 11.512C15.1384 11.7613 15.0138 12.194 15.0138 12.81V16H13.7598V9.93899H15.0138V10.819Z" fill="#2E2D30"/>
<path d="M10.0669 12.975L12.8609 16H11.1669L8.92295 13.393V16H7.66895V7.85999H8.92295V12.59L11.1229 9.93899H12.8609L10.0669 12.975Z" fill="#2E2D30"/>
</svg>
