<svg width="24" height="24" viewBox="0 0 24 24" fill="none" xmlns="http://www.w3.org/2000/svg">
<path d="M2 7V3.5C2 2.67157 2.67157 2 3.5 2H7M2 17V20.5C2 21.3284 2.67157 22 3.5 22H7M17 2L20.5 2C21.3284 2 22 2.67157 22 3.5V7M17 22H20.5C21.3284 22 22 21.3284 22 20.5V17" stroke="#2E2D30" stroke-width="1.5" stroke-linecap="round"/>
<path d="M15 7H14C13.7239 7 13.5 7.22386 13.5 7.5V16.5C13.5 16.7761 13.7239 17 14 17H15C15.2761 17 15.5 16.7761 15.5 16.5V7.5C15.5 7.22386 15.2761 7 15 7Z" fill="#2E2D30"/>
<path d="M6 7V17M8.5 7V17M11 7V17M18 7V17M14 17H15C15.2761 17 15.5 16.7761 15.5 16.5V7.5C15.5 7.22386 15.2761 7 15 7H14C13.7239 7 13.5 7.22386 13.5 7.5V16.5C13.5 16.7761 13.7239 17 14 17Z" stroke="#2E2D30" stroke-width="1.5" stroke-linecap="round"/>
</svg>
