<svg width="24" height="24" viewBox="0 0 24 24" fill="none" xmlns="http://www.w3.org/2000/svg">
<path d="M9 20C9 22 10.34 22.5 12 22.5C13.66 22.5 15 22 15 20" stroke="#2E2D30" stroke-width="1.5" stroke-linecap="round" stroke-linejoin="round"/>
<path d="M7.81229 4.64319C8.06129 4.46978 8.49459 4.24716 8.76332 4.11447C8.9193 4.03746 9.06291 3.93709 9.18592 3.81408L9.87868 3.12132C11.0503 1.94975 12.9497 1.94975 14.1213 3.12132L14.7823 3.78229C14.9259 3.92593 15.0949 4.03732 15.2777 4.12574C16.3283 4.63367 20 6.71533 20 11C20 12.7598 20 13.6593 20 14.1023C20 14.3634 20.0681 14.6192 20.1976 14.8459L21.0077 16.2635C21.4499 17.0373 20.8912 18 20 18V18M16 18H4.58477C3.43304 18 2.71098 16.7558 3.28241 15.7558L3.80236 14.8459C3.93188 14.6192 4 14.3634 4 14.1023C4 13.6593 4 12.7598 4 11C4 9.02754 4.77812 7.52195 5.72044 6.42184" stroke="#2E2D30" stroke-width="1.5" stroke-linecap="round"/>
<path d="M4 4L20 22" stroke="#2E2D30" stroke-width="1.5" stroke-linecap="round"/>
</svg>
