<svg width="24" height="24" viewBox="0 0 24 24" fill="none" xmlns="http://www.w3.org/2000/svg">
<path d="M6.5 1.75H17.5V0.25H6.5V1.75ZM18.25 2.5V21.5H19.75V2.5H18.25ZM17.5 22.25H6.5V23.75H17.5V22.25ZM5.75 21.5V2.5H4.25V21.5H5.75ZM6.5 22.25C6.08579 22.25 5.75 21.9142 5.75 21.5H4.25C4.25 22.7426 5.25736 23.75 6.5 23.75V22.25ZM18.25 21.5C18.25 21.9142 17.9142 22.25 17.5 22.25V23.75C18.7426 23.75 19.75 22.7426 19.75 21.5H18.25ZM17.5 1.75C17.9142 1.75 18.25 2.08579 18.25 2.5H19.75C19.75 1.25736 18.7426 0.25 17.5 0.25V1.75ZM6.5 0.25C5.25736 0.25 4.25 1.25736 4.25 2.5H5.75C5.75 2.08579 6.08579 1.75 6.5 1.75V0.25Z" fill="#2E2D30"/>
<circle cx="12" cy="20" r="1" fill="#2E2D30"/>
</svg>
