<svg width="24" height="24" viewBox="0 0 24 24" fill="none" xmlns="http://www.w3.org/2000/svg">
<path d="M3.75 12C3.75 11.5858 3.41421 11.25 3 11.25C2.58579 11.25 2.25 11.5858 2.25 12H3.75ZM3.82723 6.68128C3.601 7.02825 3.69888 7.49293 4.04586 7.71916C4.39283 7.9454 4.85751 7.84751 5.08374 7.50054L3.82723 6.68128ZM4.97727 3C4.97727 2.58579 4.64149 2.25 4.22727 2.25C3.81306 2.25 3.47727 2.58579 3.47727 3H4.97727ZM4.22727 7.09091H3.47727C3.47727 7.50512 3.81306 7.84091 4.22727 7.84091V7.09091ZM8.31818 7.84091C8.7324 7.84091 9.06818 7.50512 9.06818 7.09091C9.06818 6.6767 8.7324 6.34091 8.31818 6.34091V7.84091ZM20.25 12C20.25 16.5563 16.5563 20.25 12 20.25V21.75C17.3848 21.75 21.75 17.3848 21.75 12H20.25ZM12 20.25C7.44365 20.25 3.75 16.5563 3.75 12H2.25C2.25 17.3848 6.61522 21.75 12 21.75V20.25ZM12 3.75C16.5563 3.75 20.25 7.44365 20.25 12H21.75C21.75 6.61522 17.3848 2.25 12 2.25V3.75ZM5.08374 7.50054C6.55702 5.24097 9.1046 3.75 12 3.75V2.25C8.5765 2.25 5.56565 4.01506 3.82723 6.68128L5.08374 7.50054ZM3.47727 3V7.09091H4.97727V3H3.47727ZM4.22727 7.84091H8.31818V6.34091H4.22727V7.84091Z" fill="#2E2D30"/>
</svg>
