<svg width="24" height="24" viewBox="0 0 24 24" fill="none" xmlns="http://www.w3.org/2000/svg">
<path d="M12.4162 1C12.4162 1 12.4762 1.06 12.4962 1.09C13.1762 1.82 12.6762 2.96 11.9962 3.69C11.9762 3.71 11.9562 3.73 11.9362 3.75C11.2462 4.48 11.2462 5.64 11.9462 6.37C12.1362 6.57 12.3362 6.77 12.5262 6.97" stroke="white" stroke-width="1.5" stroke-linecap="round" stroke-linejoin="round"/>
<path d="M17.2164 2.15997C17.2764 2.69997 17.1164 3.25997 16.7164 3.67997C16.6964 3.69997 16.6764 3.71997 16.6564 3.73997C15.9664 4.46997 15.9664 5.62997 16.6664 6.35997C16.8564 6.55997 17.0564 6.75997 17.2464 6.95997" stroke="white" stroke-width="1.5" stroke-linecap="round" stroke-linejoin="round"/>
<path d="M8.07626 2.15997C8.13626 2.69997 7.97626 3.25997 7.57626 3.67997C7.55626 3.69997 7.53626 3.71997 7.51626 3.73997C6.82626 4.46997 6.82626 5.62997 7.52626 6.35997C7.71626 6.55997 7.91626 6.75997 8.10626 6.95997" stroke="white" stroke-width="1.5" stroke-linecap="round" stroke-linejoin="round"/>
<path d="M7 15V22.99M17 22.99V15M6.25 15H17.75C18.4404 15 19 14.4404 19 13.75V11.25C19 10.5596 18.4404 10 17.75 10H6.25C5.55964 10 5 10.5596 5 11.25V13.75C5 14.4404 5.55964 15 6.25 15Z" stroke="white" stroke-width="1.5" stroke-linecap="round"/>
</svg>
