<svg width="24" height="24" viewBox="0 0 24 24" fill="none" xmlns="http://www.w3.org/2000/svg">
<path d="M10.0215 9.63442V4H6.24871V9.74511C3.65667 10.2524 1.69189 12.5493 1.69189 15.2705C1.69189 18.3699 4.22858 21 7.33718 21H16.6722C19.7716 21 22.3175 18.3791 22.3175 15.2705C22.3175 12.1711 19.7808 9.6252 16.6722 9.6252L10.0215 9.63442Z" stroke="white" stroke-width="1.5" stroke-linecap="round" stroke-linejoin="round"/>
<path d="M4 16C4.28489 15.8264 4.56979 15.6446 4.85468 15.4711C5.87478 14.843 7.50144 14.843 8.52154 15.4711L8.5583 15.4959C9.56921 16.124 11.1959 16.124 12.216 15.4959L12.2619 15.4711C13.2636 14.8512 14.8719 14.843 15.892 15.4545C15.9288 15.4793 15.9747 15.5041 16.0115 15.5289C17.0224 16.1405 18.6123 16.1322 19.614 15.5289C19.6416 15.5124 19.6692 15.4959 19.7059 15.4793C19.7978 15.4215 19.8989 15.3719 20 15.3306" stroke="white" stroke-width="1.5" stroke-linecap="round" stroke-linejoin="round"/>
<path d="M12.5 6H23M1 6H4" stroke="white" stroke-width="1.5" stroke-linecap="round" stroke-linejoin="round"/>
</svg>
