<svg width="24" height="24" viewBox="0 0 24 24" fill="none" xmlns="http://www.w3.org/2000/svg">
<path d="M3 10.5V21.5C3 22.3284 3.67157 23 4.5 23H9M3 10.5L10.9393 2.56066C11.5251 1.97487 12.4749 1.97487 13.0607 2.56066L14.5 4M3 10.5L1.5 12M9 23V16.5C9 15.6716 9.67157 15 10.5 15H11M9 23H15" stroke="#2E2D30" stroke-width="1.5" stroke-linecap="round" stroke-linejoin="round"/>
<path d="M17.5 20.2805H12L15.0446 14.7594H13.4493L15.8474 10.4082H14.5128L17.4948 5L20.4872 10.4082H19.1526L21.5507 14.7594H19.9555L23 20.2805H17.5ZM17.5 20.2805V23" stroke="#2E2D30" stroke-width="1.5" stroke-linecap="round" stroke-linejoin="round"/>
</svg>
