<svg width="24" height="24" viewBox="0 0 24 24" fill="none" xmlns="http://www.w3.org/2000/svg">
<path d="M12.4162 1C12.4162 1 12.4762 1.06 12.4962 1.09C13.1762 1.82 12.6762 2.96 11.9962 3.69C11.9762 3.71 11.9562 3.73 11.9362 3.75C11.2462 4.48 11.2462 5.64 11.9462 6.37C12.1362 6.57 12.3362 6.77 12.5262 6.97" stroke="#2E2D30" stroke-width="1.5" stroke-linecap="round" stroke-linejoin="round"/>
<path d="M17.2164 2.16C17.2764 2.7 17.1164 3.26 16.7164 3.68C16.6964 3.7 16.6764 3.72 16.6564 3.74C15.9664 4.47 15.9664 5.63 16.6664 6.36C16.8564 6.56 17.0564 6.76 17.2464 6.96" stroke="#2E2D30" stroke-width="1.5" stroke-linecap="round" stroke-linejoin="round"/>
<path d="M8.07626 2.16C8.13626 2.7 7.97626 3.26 7.57626 3.68C7.55626 3.7 7.53626 3.72 7.51626 3.74C6.82626 4.47 6.82626 5.63 7.52626 6.36C7.71626 6.56 7.91626 6.76 8.10626 6.96" stroke="#2E2D30" stroke-width="1.5" stroke-linecap="round" stroke-linejoin="round"/>
<path d="M7 15V22.99M17 22.99V15M6.25 15H17.75C18.4404 15 19 14.4404 19 13.75V11.25C19 10.5596 18.4404 10 17.75 10H6.25C5.55964 10 5 10.5596 5 11.25V13.75C5 14.4404 5.55964 15 6.25 15Z" stroke="#2E2D30" stroke-width="1.5" stroke-linecap="round"/>
</svg>
