<svg width="24" height="24" viewBox="0 0 24 24" fill="none" xmlns="http://www.w3.org/2000/svg">
<path d="M2.25 4.72131H21.75V3.22131H2.25V4.72131ZM22.5 5.47131V18.4713H24V5.47131H22.5ZM21.75 19.2213H2.25V20.7213H21.75V19.2213ZM1.5 18.4713V5.47131H0V18.4713H1.5ZM2.25 19.2213C1.83579 19.2213 1.5 18.8855 1.5 18.4713H0C0 19.714 1.00736 20.7213 2.25 20.7213V19.2213ZM22.5 18.4713C22.5 18.8855 22.1642 19.2213 21.75 19.2213V20.7213C22.9926 20.7213 24 19.714 24 18.4713H22.5ZM21.75 4.72131C22.1642 4.72131 22.5 5.0571 22.5 5.47131H24C24 4.22867 22.9926 3.22131 21.75 3.22131V4.72131ZM2.25 3.22131C1.00736 3.22131 0 4.22867 0 5.47131H1.5C1.5 5.0571 1.83579 4.72131 2.25 4.72131V3.22131Z" fill="#2E2D30"/>
<path d="M16.4624 7.396V6.646C16.0482 6.646 15.7124 6.98178 15.7124 7.396H16.4624ZM19.8304 7.396H20.5804C20.5804 6.98178 20.2447 6.646 19.8304 6.646V7.396ZM19.8304 10.764V11.514C20.2447 11.514 20.5804 11.1783 20.5804 10.764H19.8304ZM16.4624 10.764H15.7124C15.7124 11.1783 16.0482 11.514 16.4624 11.514V10.764ZM16.4624 8.146H19.8304V6.646H16.4624V8.146ZM19.0804 7.396V10.764H20.5804V7.396H19.0804ZM19.8304 10.014H16.4624V11.514H19.8304V10.014ZM17.2124 10.764V7.396H15.7124V10.764H17.2124Z" fill="#2E2D30"/>
<path d="M4.21289 10.764H11.5004" stroke="#2E2D30" stroke-width="1.5" stroke-linecap="round"/>
<path d="M4.21289 13.2932H11.5004" stroke="#2E2D30" stroke-width="1.5" stroke-linecap="round"/>
<path d="M4.21289 15.8225H9.62119" stroke="#2E2D30" stroke-width="1.5" stroke-linecap="round"/>
</svg>
