<svg width="24" height="24" viewBox="0 0 24 24" fill="none" xmlns="http://www.w3.org/2000/svg">
<path d="M17 21V21.5C17 22.3284 16.3284 23 15.5 23H4.5C3.67157 23 3 22.3284 3 21.5V6.5C3 5.67157 3.67157 5 4.5 5H5" stroke="#2E2D30" stroke-width="1.5" stroke-linecap="round" stroke-linejoin="round"/>
<path d="M21 10.5V17.5C21 18.3284 20.3284 19 19.5 19H8.5C7.67157 19 7 18.3284 7 17.5V2.5C7 1.67157 7.67157 1 8.5 1H11.5" stroke="#2E2D30" stroke-width="1.5" stroke-linecap="round" stroke-linejoin="round"/>
<path d="M21.07 6.66V1M21.07 1H15.41M21.07 1L14 8.07" stroke="#2E2D30" stroke-width="1.5" stroke-linecap="round" stroke-linejoin="round"/>
</svg>
