<svg width="24" height="24" viewBox="0 0 24 24" fill="none" xmlns="http://www.w3.org/2000/svg">
<g clip-path="url(#clip0_8056_5959)">
<path d="M9.5498 8.44799C10.1882 7.58707 11.2219 7.02647 12.3873 7.02647C14.3331 7.02647 15.9039 8.58814 15.9039 10.5002C15.9039 12.4122 14.3229 13.9739 12.3873 13.9739C11.3131 13.9739 10.3504 13.5034 9.70182 12.7526" stroke="#2E2D30" stroke-width="1.5" stroke-linecap="round" stroke-linejoin="round"/>
<path d="M3.00342 8.44803C3.95602 4.18348 7.79682 1.00009 12.3875 1.00009C17.6978 1.00009 22.0048 5.25462 22.0048 10.5002C22.0048 15.7458 17.6978 20.0003 12.3875 20.0003C7.85763 20.0003 4.06749 16.9171 3.04395 12.7526" stroke="#2E2D30" stroke-width="1.5" stroke-linecap="round" stroke-linejoin="round"/>
<path d="M1 10.4999H12.2215" stroke="#2E2D30" stroke-width="1.5" stroke-linecap="round" stroke-linejoin="round"/>
<path d="M22.0044 23V10.4602" stroke="#2E2D30" stroke-width="1.5" stroke-linecap="round" stroke-linejoin="round"/>
<path d="M6.18555 8.4481C7.05708 5.88537 9.50952 4.0334 12.3977 4.0334C16.0156 4.0334 18.9443 6.92648 18.9443 10.5003C18.9443 14.0741 16.0156 16.9672 12.3977 16.9672C9.58045 16.9672 7.18882 15.2153 6.25649 12.7527" stroke="#2E2D30" stroke-width="1.5" stroke-linecap="round" stroke-linejoin="round"/>
<path d="M21 20.0002H23" stroke="#2E2D30" stroke-width="1.5" stroke-linecap="round" stroke-linejoin="round"/>
</g>
<defs>
<clipPath id="clip0_8056_5959">
<rect width="24" height="24" fill="white"/>
</clipPath>
</defs>
</svg>
