<svg width="24" height="24" viewBox="0 0 24 24" fill="none" xmlns="http://www.w3.org/2000/svg">
<path d="M14.5 4C16.9866 4 19 5.93089 19 8.31555V21.5354C19 22.3443 18.3443 23 17.5354 23H11.4646C10.6557 23 10 22.3443 10 21.5354V8.31555C10 5.93089 12.0134 4 14.5 4Z" stroke="#2E2D30" stroke-width="1.5" stroke-linecap="round" stroke-linejoin="round"/>
<path d="M4.79248 15.7061C5.08541 13.6361 5.27093 12.0152 5.39787 10.8826C5.5541 9.39838 5.63221 8.65629 5.65174 8.42195C5.81773 6.52767 5.76891 6.3031 5.95443 5.61959C6.12042 4.99468 6.40359 3.9499 7.29214 2.98324C8.2881 1.87987 9.47934 1.49906 10.0164 1.33307C10.9049 1.05967 11.629 1.00982 12 1.00006C12 1.00006 12.8867 1.0001 13.5 1.0001M21 1.00004C20.7641 1.00004 18.2931 1.00004 16 1.00005M13.5 3.50004V1.33311V1.0001M15.5 3.5V1.50004V1.00005M22 5.00004L16 1.00005M13.5 1.0001C14.1449 1.00009 14.5403 1.00005 15.5 1.00005M15.5 1.00005C15.6651 1.00005 15.8321 1.00005 16 1.00005" stroke="#2E2D30" stroke-width="1.5" stroke-linecap="round" stroke-linejoin="round"/>
<path d="M10 19H19" stroke="#2E2D30" stroke-width="1.5" stroke-linecap="round" stroke-linejoin="round"/>
<path d="M10 9.99995H19" stroke="#2E2D30" stroke-width="1.5" stroke-linecap="round" stroke-linejoin="round"/>
<path d="M5.1141 15.8604C5.61508 15.9393 5.97224 16.3886 5.9361 16.8945L5.57466 21.9547C5.53431 22.5197 5.02332 22.9319 4.46262 22.8518L3.02967 22.6471C2.47182 22.5674 2.09704 22.0333 2.21178 21.4816L3.24646 16.5064C3.35249 15.9966 3.83997 15.6597 4.35438 15.7407L5.1141 15.8604Z" stroke="#2E2D30" stroke-width="1.5" stroke-linecap="round" stroke-linejoin="round"/>
</svg>
