<svg width="24" height="24" viewBox="0 0 24 24" fill="none" xmlns="http://www.w3.org/2000/svg">
<path d="M20 4L19.4146 2.82918C19.1605 2.321 18.6411 2 18.0729 2H17M17 2H5.57687C4.71903 2 4.03591 2.71813 4.07875 3.57491L4.92875 20.5749C4.96866 21.3732 5.62756 22 6.42688 22H14.3411M17 2L16.1664 16.5045M16.1664 16.5045C16.1113 16.5015 16.0558 16.5 16 16.5C14.3431 16.5 13 17.8431 13 19.5C13 20.5435 13.5328 21.4625 14.3411 22M16.1664 16.5045C17.7459 16.5909 19 17.899 19 19.5C19 21.1569 17.6569 22.5 16 22.5C15.3866 22.5 14.8163 22.3159 14.3411 22" stroke="#2E2D30" stroke-width="1.5" stroke-linecap="round" stroke-linejoin="round"/>
</svg>
