<svg width="24" height="24" viewBox="0 0 24 24" fill="none" xmlns="http://www.w3.org/2000/svg">
<path d="M1 1V21.5C1 22.3284 1.67157 23 2.5 23H23" stroke="#2E2D30" stroke-width="1.5" stroke-linecap="round" stroke-linejoin="round"/>
<path d="M3.16504 20.6449C5.33504 17.8149 7.50504 14.9749 9.67504 12.1449C11.805 13.5049 13.935 14.8649 16.065 16.2249C18.065 13.4049 20.065 10.5849 22.065 7.76489" stroke="#2E2D30" stroke-width="1.5" stroke-linecap="round" stroke-linejoin="round"/>
<path d="M9.68514 12.8149C10.0552 12.8149 10.3551 12.5149 10.3551 12.1449C10.3551 11.7748 10.0552 11.4749 9.68514 11.4749C9.31511 11.4749 9.01514 11.7748 9.01514 12.1449C9.01514 12.5149 9.31511 12.8149 9.68514 12.8149Z" stroke="#2E2D30" stroke-width="1.5" stroke-linecap="round" stroke-linejoin="round"/>
<path d="M22.065 8.42496C22.4351 8.42496 22.735 8.12499 22.735 7.75496C22.735 7.38493 22.4351 7.08496 22.065 7.08496C21.695 7.08496 21.395 7.38493 21.395 7.75496C21.395 8.12499 21.695 8.42496 22.065 8.42496Z" stroke="#2E2D30" stroke-width="1.5" stroke-linecap="round" stroke-linejoin="round"/>
<path d="M16.0753 16.8849C16.4453 16.8849 16.7453 16.585 16.7453 16.2149C16.7453 15.8449 16.4453 15.5449 16.0753 15.5449C15.7052 15.5449 15.4053 15.8449 15.4053 16.2149C15.4053 16.585 15.7052 16.8849 16.0753 16.8849Z" stroke="#2E2D30" stroke-width="1.5" stroke-linecap="round" stroke-linejoin="round"/>
</svg>
