<svg width="24" height="24" viewBox="0 0 24 24" fill="none" xmlns="http://www.w3.org/2000/svg">
<path d="M23 10.7215L21.3281 9.04957C21.2298 9.09875 20.4135 9.47246 19.8529 9.06924C19.7447 8.99057 19.6661 8.90205 19.6366 8.85288C19.2333 8.29231 19.6071 7.48587 19.6464 7.38753H19.6562L15.8109 3.52253C15.5847 3.30617 13.4703 1.34908 10.6969 1.90965C9.29057 2.19486 8.35628 3.00129 7.94323 3.41435C8.44479 3.34551 9.99866 3.18815 11.5624 4.10277C12.5557 4.69285 13.1359 5.45994 13.4113 5.91234C13.3621 5.94184 12.3786 6.53192 12.418 7.4662C12.4278 7.71207 12.5163 7.92843 12.6048 8.08578L1 19.7103L3.47832 22.1886L15.0831 10.5838L15.7421 11.2427C15.7421 11.2427 15.7421 11.2525 15.7421 11.2624C15.7421 11.2624 15.7617 11.2624 15.7716 11.2624C15.8797 11.2132 16.7059 10.8395 17.2566 11.2427C17.2959 11.2722 17.3746 11.3312 17.4434 11.4295C17.8565 11.9901 17.4828 12.8359 17.4238 12.9441C17.4238 12.9441 17.4336 12.9441 17.4434 12.9441L19.1055 14.6061L22.9902 10.7215H23Z" stroke="#2E2D30" stroke-width="1.5" stroke-linecap="round" stroke-linejoin="round"/>
<path d="M15.0735 10.564L12.605 8.09552" stroke="#2E2D30" stroke-width="1.5" stroke-linecap="round" stroke-linejoin="round"/>
</svg>
