<svg width="24" height="24" viewBox="0 0 24 24" fill="none" xmlns="http://www.w3.org/2000/svg">
<path d="M14.4321 3.42698L12.0051 1M12.0051 1L9.57812 3.42698M12.0051 1V7.35731" stroke="#2E2D30" stroke-width="1.5" stroke-linecap="round" stroke-linejoin="round"/>
<path d="M19.7083 20.4747L23 19.5216M23 19.5216L22.0469 16.23M23 19.5216L17.4287 16.456" stroke="#2E2D30" stroke-width="1.5" stroke-linecap="round" stroke-linejoin="round"/>
<path d="M20.3174 15.277L20.3272 8.00586" stroke="#2E2D30" stroke-width="1.5" stroke-linecap="round" stroke-linejoin="round"/>
<path d="M11.9951 12.8303V22.7937L17.7039 19.5807" stroke="#2E2D30" stroke-width="1.5" stroke-linecap="round" stroke-linejoin="round"/>
<path d="M3.67236 15.2869C3.67236 12.8599 3.67236 10.4231 3.67236 7.99609" stroke="#2E2D30" stroke-width="1.5" stroke-linecap="round" stroke-linejoin="round"/>
<path d="M11.9949 22.7936L6.28613 19.5806" stroke="#2E2D30" stroke-width="1.5" stroke-linecap="round" stroke-linejoin="round"/>
<path d="M15.8663 5.41187L20.337 8.00588L11.9949 12.8304L3.6626 8.00588L8.12352 5.41187" stroke="#2E2D30" stroke-width="1.5" stroke-linecap="round" stroke-linejoin="round"/>
<path d="M1 19.5216L4.29165 20.4747M1 19.5216L1.95311 16.23M1 19.5216L6.57124 16.456" stroke="#2E2D30" stroke-width="1.5" stroke-linecap="round" stroke-linejoin="round"/>
</svg>
