<svg width="24" height="24" viewBox="0 0 24 24" fill="none" xmlns="http://www.w3.org/2000/svg">
<path d="M23 10H21.3289C20.9264 10 20.5438 10.1751 20.2808 10.4798C19.1163 11.8284 17.9567 13.1716 16.7922 14.5202C16.5292 14.8249 16.1466 15 15.7441 15H8.25593C7.85342 15 7.47082 14.8249 7.20776 14.5202C6.04334 13.1716 4.88366 11.8284 3.71924 10.4798C3.45619 10.1751 3.07359 10 2.67107 10H1" stroke="#2E2D30" stroke-width="1.5" stroke-linecap="round" stroke-linejoin="round"/>
<path d="M18 10L15.7076 12.7509C15.5761 12.9087 15.3812 13 15.1757 13H8.82431C8.61881 13 8.42394 12.9087 8.29239 12.7509L6 10L18 10Z" stroke="#2E2D30" stroke-width="1.5" stroke-linecap="round" stroke-linejoin="round"/>
</svg>
