<svg width="24" height="24" viewBox="0 0 24 24" fill="none" xmlns="http://www.w3.org/2000/svg">
<path d="M20.3308 12.9397L21.1633 13.3732L21.7226 13.6644C22.2607 13.9446 22.2607 14.7146 21.7226 14.9948L12.3419 19.8798C12.1247 19.9929 11.866 19.9928 11.6489 19.8797L2.2761 14.9947C1.73829 14.7144 1.73834 13.9448 2.27616 13.6645C2.76796 13.4082 3.23649 13.164 3.68907 12.9281M8.15979 10.598C9.22664 10.042 10.3525 9.45524 11.6487 8.77966C11.8659 8.66649 12.1247 8.66637 12.3419 8.77947L15.8218 10.5916" stroke="#2E2D30" stroke-width="1.5" stroke-linecap="round" stroke-linejoin="round"/>
<path d="M21.7226 9.00537C22.2607 9.28559 22.2607 10.0556 21.7226 10.3358L12.3419 15.2207C12.1247 15.3338 11.866 15.3338 11.6489 15.2206L2.2761 10.3357C1.73829 10.0554 1.73829 9.28579 2.27611 9.00549L11.6489 4.12054C11.866 4.00737 12.1247 4.00732 12.3419 4.12042L21.7226 9.00537Z" stroke="#2E2D30" stroke-width="1.5" stroke-linecap="round" stroke-linejoin="round" stroke-dasharray="2.8 2.8"/>
</svg>
