<svg width="24" height="24" viewBox="0 0 24 24" fill="none" xmlns="http://www.w3.org/2000/svg">
<path d="M9.5 17C9.5 17 6 13.8137 6 10.5C6 7.18629 8.68629 4.5 12 4.5C15.3137 4.5 18 7.18629 18 10.5C18 13.473 14.5 17 14.5 17M9.5 17H14.5M9.5 17L9.86493 20.6493C9.94161 21.4161 10.5869 22 11.3575 22H12.6425C13.4131 22 14.0584 21.4161 14.1351 20.6493L14.5 17" stroke="#2E2D30" stroke-width="1.5"/>
<path d="M12 2V1M21 10H22M2 10H3M18.364 16.364L19.0711 17.0711M4.92893 2.92893L5.63604 3.63604M18.364 3.63604L19.0711 2.92893M4.92893 17.0711L5.63604 16.364" stroke="#2E2D30" stroke-width="1.5" stroke-linecap="round"/>
</svg>
