<svg width="24" height="24" viewBox="0 0 24 24" fill="none" xmlns="http://www.w3.org/2000/svg">
<path fill-rule="evenodd" clip-rule="evenodd" d="M10.1598 7.33C7.03977 8.2 6.32977 8.9 5.45977 12.03C4.58977 8.91 3.88977 8.2 0.759766 7.33C3.87977 6.46 4.58977 5.76 5.45977 2.63C6.32977 5.75 7.02977 6.46 10.1598 7.33Z" stroke="#2E2D30" stroke-width="1.5" stroke-linecap="round" stroke-linejoin="round"/>
<path d="M16.9999 9.61169L21.6569 4.9547L19.2103 2.50811L14.5533 7.1651M16.9999 9.61169L3.36407 23.2476L0.91748 20.801L14.5533 7.1651M16.9999 9.61169L14.5533 7.1651" stroke="#2E2D30" stroke-width="1.5" stroke-linecap="round" stroke-linejoin="round"/>
<path d="M11.0098 2.47H14.4398M12.7198 0.75V4.19" stroke="#2E2D30" stroke-width="1.5" stroke-linecap="round" stroke-linejoin="round"/>
<path fill-rule="evenodd" clip-rule="evenodd" d="M19.75 18.26C20.4 15.93 20.93 15.41 23.25 14.76C20.92 14.11 20.4 13.58 19.75 11.26C19.1 13.59 18.57 14.11 16.25 14.76C18.58 15.41 19.1 15.94 19.75 18.26Z" stroke="#2E2D30" stroke-width="1.5" stroke-linecap="round" stroke-linejoin="round"/>
</svg>
