<svg width="24" height="24" viewBox="0 0 24 24" fill="none" xmlns="http://www.w3.org/2000/svg">
<path d="M12 21.25C17.1086 21.25 21.25 17.1086 21.25 12C21.25 6.89133 17.1086 2.74996 12 2.74996C6.89137 2.74996 2.75 6.89133 2.75 12C2.75 17.1086 6.89137 21.25 12 21.25Z" stroke="#2E2D30" stroke-width="1.5" stroke-linecap="round" stroke-linejoin="round"/>
<path d="M20 7H23M20 17H23M1 7H4M1 17H4" stroke="#2E2D30" stroke-width="1.5" stroke-linecap="round" stroke-linejoin="round"/>
<path d="M9 9.49997V14.5M12 9.49997V14.5M15 9.49997V14.5M7.5 14.5001H16.5C17.3284 14.5001 18 13.8285 18 13.0001V11.0001C18 10.1717 17.3284 9.50011 16.5 9.50011H7.5C6.67157 9.50011 6 10.1717 6 11.0001V13.0001C6 13.8285 6.67157 14.5001 7.5 14.5001Z" stroke="#2E2D30" stroke-width="1.5" stroke-linecap="round" stroke-linejoin="round"/>
</svg>
