<svg width="24" height="24" viewBox="0 0 24 24" fill="none" xmlns="http://www.w3.org/2000/svg">
<path d="M9 20C9 22 10.34 22.5 12 22.5C13.66 22.5 15 22 15 20" stroke="#2E2D30" stroke-width="1.5" stroke-linecap="round" stroke-linejoin="round"/>
<path d="M4 11C4 6.71533 7.67168 4.63367 8.72226 4.12574C8.90515 4.03731 9.07407 3.92593 9.21771 3.78229L9.87868 3.12132C11.0503 1.94975 12.9497 1.94975 14.1213 3.12132L14.7823 3.78229C14.9259 3.92593 15.0949 4.03732 15.2777 4.12574C16.3283 4.63367 20 6.71533 20 11C20 12.7598 20 13.6593 20 14.1023C20 14.3634 20.0681 14.6192 20.1976 14.8459L20.7176 15.7558C21.289 16.7558 20.567 18 19.4152 18H4.58477C3.43304 18 2.71098 16.7558 3.28241 15.7558L3.80236 14.8459C3.93188 14.6192 4 14.3634 4 14.1023C4 13.6593 4 12.7598 4 11Z" stroke="#2E2D30" stroke-width="1.5"/>
</svg>
