<svg width="24" height="24" viewBox="0 0 24 24" fill="none" xmlns="http://www.w3.org/2000/svg">
<path d="M7.65562 4.18011C7.36986 3.66576 6.63014 3.66576 6.34438 4.18011L2.61902 10.8858C2.3413 11.3857 2.70277 12 3.27464 12H10.7254C11.2972 12 11.6587 11.3857 11.381 10.8858L7.65562 4.18011Z" stroke="#2E2D30" stroke-width="1.5"/>
<path d="M2.75 20C2.33579 20 2 19.6642 2 19.25V15.75C2 15.3358 2.33579 15 2.75 15H21.25C21.6642 15 22 15.3358 22 15.75V19.25C22 19.6642 21.6642 20 21.25 20H2.75Z" stroke="#2E2D30" stroke-width="1.5"/>
<path d="M21.5 8C21.5 10.2091 19.7091 12 17.5 12C15.2909 12 13.5 10.2091 13.5 8C13.5 5.79086 15.2909 4 17.5 4C19.7091 4 21.5 5.79086 21.5 8Z" stroke="#2E2D30" stroke-width="1.5"/>
</svg>
