<svg width="24" height="24" viewBox="0 0 24 24" fill="none" xmlns="http://www.w3.org/2000/svg">
<path d="M11.0784 15.1122C13.792 15.7702 16.4044 14.9101 16.9134 13.1913C17.4224 11.4725 15.6352 9.54572 12.9216 8.88778M11.0784 15.1122C8.36481 14.4543 6.5776 12.5275 7.08658 10.8087C7.59556 9.08986 10.208 8.22984 12.9216 8.88778M11.0784 15.1122L12.9216 15.5544C15.6352 16.2124 17.4224 18.1391 16.9134 19.858C16.4044 21.5768 13.792 22.4368 11.0784 21.7789C8.89726 21.25 7.31462 19.9015 7.04184 18.5M12.9216 8.88778L11.0784 8.44555C8.36481 7.78761 6.5776 5.86085 7.08658 4.14202C7.59556 2.42319 10.208 1.56317 12.9216 2.22112C15.1027 2.74996 16.6854 4.09854 16.9582 5.5" stroke="#2E2D30" stroke-width="1.5" stroke-linecap="round" stroke-linejoin="round"/>
</svg>
