<svg width="24" height="24" viewBox="0 0 24 24" fill="none" xmlns="http://www.w3.org/2000/svg">
<path d="M8.75 15.25L11.8915 18.3915C12.6529 19.1529 13.9449 18.8877 14.3448 17.8879L15.3857 15.2859C15.4611 15.0973 15.5741 14.9259 15.7177 14.7823L20.2496 10.2504C20.4143 10.0857 20.615 9.96166 20.8359 9.88802L21.1975 9.7675C22.2553 9.41488 22.5723 8.07229 21.7838 7.28382L16.8026 2.30261C15.9939 1.49387 14.6139 1.85147 14.2997 2.95119L14.1068 3.62627C14.0368 3.87137 13.9054 4.09459 13.7252 4.27484L9.73531 8.26469C9.58032 8.41968 9.39325 8.53882 9.18726 8.61372L6.21349 9.69509C5.18213 10.0701 4.88945 11.3894 5.66544 12.1654L8.75 15.25ZM8.75 15.25L3 21" stroke="#2E2D30" stroke-width="1.5" stroke-linecap="round"/>
</svg>
