<svg width="24" height="24" viewBox="0 0 24 24" fill="none" xmlns="http://www.w3.org/2000/svg">
<path d="M2 7V3.5C2 2.67157 2.67157 2 3.5 2H7M2 17V20.5C2 21.3284 2.67157 22 3.5 22H7M17 2L20.5 2C21.3284 2 22 2.67157 22 3.5V7M17 22H20.5C21.3284 22 22 21.3284 22 20.5V17" stroke="#2E2D30" stroke-width="1.5" stroke-linecap="round"/>
<path d="M6 9.25V6.75C6 6.33579 6.33579 6 6.75 6H9.25C9.66421 6 10 6.33579 10 6.75V9.25C10 9.66421 9.66421 10 9.25 10H6.75C6.33579 10 6 9.66421 6 9.25Z" stroke="#2E2D30" stroke-width="1.5" stroke-linecap="square"/>
<path d="M14 9.25V6.75C14 6.33579 14.3358 6 14.75 6H17.25C17.6642 6 18 6.33579 18 6.75V9.25C18 9.66421 17.6642 10 17.25 10H14.75C14.3358 10 14 9.66421 14 9.25Z" stroke="#2E2D30" stroke-width="1.5" stroke-linecap="square"/>
<path d="M6 17.25V14.75C6 14.3358 6.33579 14 6.75 14H9.25C9.66421 14 10 14.3358 10 14.75V17.25C10 17.6642 9.66421 18 9.25 18H6.75C6.33579 18 6 17.6642 6 17.25Z" stroke="#2E2D30" stroke-width="1.5" stroke-linecap="square"/>
<path d="M14 17.25V14.75C14 14.3358 14.3358 14 14.75 14H17.25C17.6642 14 18 14.3358 18 14.75V17.25C18 17.6642 17.6642 18 17.25 18H14.75C14.3358 18 14 17.6642 14 17.25Z" fill="#2E2D30" stroke="#2E2D30" stroke-width="1.5" stroke-linecap="square"/>
</svg>
