<svg width="24" height="24" viewBox="0 0 24 24" fill="none" xmlns="http://www.w3.org/2000/svg">
<path d="M16.2858 19.8574C18.2582 19.8574 19.8572 18.2586 19.8572 16.286C19.8572 14.3136 18.2582 12.7146 16.2858 12.7146C14.3133 12.7146 12.7144 14.3136 12.7144 16.286C12.7144 18.2586 14.3133 19.8574 16.2858 19.8574Z" stroke="#2E2D30" stroke-width="1.5" stroke-linecap="round" stroke-linejoin="round"/>
<path d="M21.2849 21.2855L18.8135 18.814" stroke="#2E2D30" stroke-width="1.5" stroke-linecap="round" stroke-linejoin="round"/>
<path d="M12.0001 4.85739C12.0001 3.67393 11.0407 2.71454 9.85721 2.71454H4.21436C3.38593 2.71454 2.71436 3.38611 2.71436 4.21454V15.5002C2.71436 16.3286 3.38593 17.0002 4.21436 17.0002H9.85721" stroke="#2E2D30" stroke-width="1.5" stroke-linecap="round" stroke-linejoin="round"/>
<path d="M12 4.85748V11.2861" stroke="#2E2D30" stroke-width="1.5" stroke-linecap="round" stroke-linejoin="round"/>
<path d="M12 4.85715C12 3.67368 12.9594 2.71429 14.1429 2.71429H19.7857C20.6141 2.71429 21.2857 3.38587 21.2857 4.21429V12.7146" stroke="#2E2D30" stroke-width="1.5" stroke-linecap="round" stroke-linejoin="round"/>
</svg>
