<svg width="24" height="24" viewBox="0 0 24 24" fill="none" xmlns="http://www.w3.org/2000/svg">
<path d="M20.25 12C20.25 11.5858 20.5858 11.25 21 11.25C21.4142 11.25 21.75 11.5858 21.75 12H20.25ZM20.1728 6.68128C20.399 7.02825 20.3011 7.49293 19.9541 7.71916C19.6072 7.9454 19.1425 7.84751 18.9163 7.50054L20.1728 6.68128ZM19.0227 3C19.0227 2.58579 19.3585 2.25 19.7727 2.25C20.1869 2.25 20.5227 2.58579 20.5227 3H19.0227ZM19.7727 7.09091H20.5227C20.5227 7.50512 20.1869 7.84091 19.7727 7.84091V7.09091ZM15.6818 7.84091C15.2676 7.84091 14.9318 7.50512 14.9318 7.09091C14.9318 6.6767 15.2676 6.34091 15.6818 6.34091V7.84091ZM3.75 12C3.75 16.5563 7.44365 20.25 12 20.25V21.75C6.61522 21.75 2.25 17.3848 2.25 12H3.75ZM12 20.25C16.5563 20.25 20.25 16.5563 20.25 12H21.75C21.75 17.3848 17.3848 21.75 12 21.75V20.25ZM12 3.75C7.44365 3.75 3.75 7.44365 3.75 12H2.25C2.25 6.61522 6.61522 2.25 12 2.25V3.75ZM18.9163 7.50054C17.443 5.24097 14.8954 3.75 12 3.75V2.25C15.4235 2.25 18.4343 4.01506 20.1728 6.68128L18.9163 7.50054ZM20.5227 3V7.09091H19.0227V3H20.5227ZM19.7727 7.84091H15.6818V6.34091H19.7727V7.84091Z" fill="#2E2D30"/>
</svg>
