<svg width="24" height="24" viewBox="0 0 24 24" fill="none" xmlns="http://www.w3.org/2000/svg">
<path d="M6 2H3.5C2.67157 2 2 2.67157 2 3.5V20.5C2 21.3284 2.67157 22 3.5 22H20.5C21.3284 22 22 21.3284 22 20.5V18" stroke="#2E2D30" stroke-width="1.5" stroke-linecap="round" stroke-linejoin="round"/>
<path d="M11 2C17.0751 2 22 6.92487 22 13M11 5C15.4183 5 19 8.58172 19 13M11 8C13.7614 8 16 10.2386 16 13M13 12.5C13 13.3284 12.3284 14 11.5 14C10.6716 14 10 13.3284 10 12.5C10 11.6716 10.6716 11 11.5 11C12.3284 11 13 11.6716 13 12.5Z" stroke="#2E2D30" stroke-width="1.5" stroke-linecap="round"/>
</svg>
