<svg width="24" height="24" viewBox="0 0 24 24" fill="none" xmlns="http://www.w3.org/2000/svg">
<path d="M16.4014 19.1499H20.2414V22.9999" stroke="#2E2D30" stroke-width="1.5" stroke-linecap="round" stroke-linejoin="round"/>
<path d="M14.5015 1.12016C14.6815 1.16016 14.8515 1.21016 15.0315 1.26016C20.8815 2.93016 24.2815 9.04016 22.6015 14.8902C22.5315 15.1302 22.4515 15.3702 22.3715 15.6002" stroke="#2E2D30" stroke-width="1.5" stroke-linecap="round" stroke-linejoin="round"/>
<path d="M1.43138 15.02C0.901376 13.26 0.811375 11.35 1.24138 9.43005C2.25138 4.97005 5.82138 1.76005 10.0514 1.00005" stroke="#2E2D30" stroke-width="1.5" stroke-linecap="round" stroke-linejoin="round"/>
<path d="M20.2515 19.17C17.5215 22.24 13.1815 23.66 8.96152 22.46C6.77152 21.83 4.93152 20.59 3.56152 18.97" stroke="#2E2D30" stroke-width="1.5" stroke-linecap="round" stroke-linejoin="round"/>
<path d="M12.0414 15.6002C14.1787 15.6002 15.9114 13.8675 15.9114 11.7302C15.9114 9.59281 14.1787 7.86015 12.0414 7.86015C9.90404 7.86015 8.17139 9.59281 8.17139 11.7302C8.17139 13.8675 9.90404 15.6002 12.0414 15.6002Z" stroke="#2E2D30" stroke-width="1.5" stroke-linecap="round" stroke-linejoin="round"/>
</svg>
