<svg width="24" height="24" viewBox="0 0 24 24" fill="none" xmlns="http://www.w3.org/2000/svg">
<path d="M20.1526 7.98341C20.1557 7.98029 20.1571 7.97586 20.1565 7.9715C19.7883 5.47766 18.3915 3.42904 15.9463 1.99362C15.0446 1.46846 14.0141 1.14147 12.9737 1.04239C10.0705 0.78476 7.70232 1.70627 5.91876 3.67809C4.27392 5.49138 3.58032 7.63165 3.79831 10.0692C3.89739 11.1393 4.18474 11.9122 4.28383 12.1698C4.60091 13.0121 5.00716 13.6462 5.33415 14.0822C7.35366 16.7869 9.38136 19.4916 11.4023 22.1963C11.7022 22.5976 12.3037 22.5979 12.6039 22.1969L18.5226 14.2903C18.9784 13.7057 19.672 12.6553 20.0287 11.169C20.1276 10.7634 20.3748 9.54767 20.1486 7.99535C20.148 7.99099 20.1495 7.98653 20.1526 7.98341V7.98341Z" stroke="#2E2D30" stroke-width="1.5" stroke-linecap="round" stroke-linejoin="round"/>
<path d="M13.4528 9.073C13.8635 9.14633 14.2118 9.36266 14.4978 9.722C14.7838 10.0813 14.9268 10.4883 14.9268 10.943C14.9268 11.3317 14.8242 11.6837 14.6188 11.999C14.4208 12.307 14.1312 12.5527 13.7498 12.736C13.3685 12.912 12.9248 13 12.4188 13H9.36084V5.355H12.2758C12.7965 5.355 13.2438 5.443 13.6178 5.619C13.9918 5.795 14.2742 6.03333 14.4648 6.334C14.6555 6.62733 14.7508 6.95733 14.7508 7.324C14.7508 7.764 14.6335 8.13066 14.3988 8.424C14.1642 8.71733 13.8488 8.93366 13.4528 9.073ZM10.6148 8.567H12.1658C12.5765 8.567 12.8955 8.47533 13.1228 8.292C13.3575 8.10133 13.4748 7.83 13.4748 7.478C13.4748 7.13333 13.3575 6.86566 13.1228 6.675C12.8955 6.477 12.5765 6.378 12.1658 6.378H10.6148V8.567ZM12.3088 11.977C12.7342 11.977 13.0678 11.8743 13.3098 11.669C13.5518 11.4637 13.6728 11.1777 13.6728 10.811C13.6728 10.437 13.5445 10.14 13.2878 9.92C13.0312 9.7 12.6902 9.59 12.2648 9.59H10.6148V11.977H12.3088Z" fill="#2E2D30"/>
</svg>
