<svg width="24" height="24" viewBox="0 0 24 24" fill="none" xmlns="http://www.w3.org/2000/svg">
<path d="M21.9393 10.9395L13.0607 2.06078C12.4749 1.475 11.5251 1.475 10.9393 2.06078L2.06066 10.9395C1.47487 11.5252 1.47487 12.475 2.06066 13.0608L10.9393 21.9395C11.5251 22.5252 12.4749 22.5252 13.0607 21.9395L21.9393 13.0608C22.5251 12.475 22.5251 11.5252 21.9393 10.9395Z" stroke="#2E2D30" stroke-width="1.5" stroke-linecap="round" stroke-linejoin="round"/>
<path d="M10 16.0001C10 14.5115 10 14.1996 10 13.4651C10 12.6367 10.6716 11.9645 11.5 11.9645L16.5 11.9644M16.5 11.9644L14 9.46442M16.5 11.9644L14 14.4644" stroke="#2E2D30" stroke-width="1.5" stroke-linecap="round" stroke-linejoin="round"/>
</svg>
