<svg width="24" height="24" viewBox="0 0 24 24" fill="none" xmlns="http://www.w3.org/2000/svg">
<path d="M12.8791 2H11.1211C10.4235 2 9.81803 2.4809 9.66008 3.16037L9.31318 4.65274C9.13626 5.41382 8.40472 5.91161 7.63182 5.79685L5.06324 5.41545C4.46236 5.32623 3.86699 5.60823 3.55536 6.12967L2.57376 7.77209C2.23336 8.34166 2.30762 9.06721 2.75635 9.55601L4.06878 10.9856C4.59546 11.5593 4.59547 12.4407 4.06882 13.0144L2.75648 14.444C2.30778 14.9328 2.23353 15.6583 2.57392 16.2279L3.55553 17.8703C3.86717 18.3918 4.46255 18.6738 5.06343 18.5846L7.63181 18.2032C8.40471 18.0884 9.13626 18.5862 9.31318 19.3473L9.66008 20.8396C9.81803 21.5191 10.4235 22 11.1211 22H12.8791C13.5767 22 14.1822 21.519 14.3401 20.8395L14.6869 19.3474C14.8638 18.5863 15.5954 18.0884 16.3683 18.2032L18.9365 18.5847C19.5374 18.6739 20.1328 18.3919 20.4445 17.8704L21.4261 16.228C21.7665 15.6585 21.6922 14.9329 21.2435 14.4441L19.9311 13.0144C19.4045 12.4407 19.4045 11.5594 19.9312 10.9857L21.2437 9.55589C21.6924 9.06709 21.7666 8.34155 21.4262 7.77199L20.4447 6.12957C20.133 5.60812 19.5376 5.32612 18.9367 5.41536L16.3683 5.7968C15.5954 5.91159 14.8638 5.41374 14.6869 4.6526L14.3401 3.16047C14.1822 2.48095 13.5767 2 12.8791 2Z" stroke="#2E2D30" stroke-width="1.5" stroke-linecap="round" stroke-linejoin="round"/>
<path d="M16 12C16 14.2091 14.2091 16 12 16C9.79086 16 8 14.2091 8 12C8 9.79086 9.79086 8 12 8C14.2091 8 16 9.79086 16 12Z" stroke="#2E2D30" stroke-width="1.5"/>
</svg>
