<svg width="24" height="24" viewBox="0 0 24 24" fill="none" xmlns="http://www.w3.org/2000/svg">
<path d="M17.71 13.82C12.08 15.41 10.8 16.69 9.23 22.38C7.66 16.69 6.38 15.4 0.75 13.82C6.38 12.23 7.66 10.95 9.23 5.25999C10.8 10.95 12.08 12.24 17.71 13.82Z" stroke="#2E2D30" stroke-width="1.5" stroke-linecap="round" stroke-linejoin="round"/>
<path fill-rule="evenodd" clip-rule="evenodd" d="M17.23 8.79C17.97 6.12 18.57 5.51 21.21 4.77C18.56 4.03 17.96 3.42 17.23 0.75C16.49 3.42 15.89 4.03 13.25 4.77C15.9 5.51 16.5 6.12 17.23 8.79ZM20.2 21.15C20.75 19.15 21.2 18.7 23.17 18.15C21.19 17.59 20.75 17.14 20.2 15.15C19.65 17.15 19.2 17.6 17.23 18.15C19.21 18.71 19.65 19.16 20.2 21.15Z" stroke="#2E2D30" stroke-width="1.5" stroke-linecap="round" stroke-linejoin="round"/>
</svg>
