<svg width="24" height="24" viewBox="0 0 24 24" fill="none" xmlns="http://www.w3.org/2000/svg">
<path d="M2 23H22" stroke="#2E2D30" stroke-width="1.5" stroke-linecap="round"/>
<path d="M2.75883 16.2058L2.35883 18.2058C2.1732 19.134 2.88314 20 3.82971 20H20.1703C21.1169 20 21.8268 19.134 21.6412 18.2058L21.2412 16.2058C21.1009 15.5047 20.4853 15 19.7703 15H15.5C14.6716 15 14 14.3284 14 13.5V11C14 9.53513 16 7 16 5C16 2.79086 14.2091 1 12 1C9.79086 1 8 2.79086 8 5C8 7 10 9.53513 10 11V13.5C10 14.3284 9.32843 15 8.5 15H4.22971C3.51468 15 2.89906 15.5047 2.75883 16.2058Z" stroke="#2E2D30" stroke-width="1.5"/>
</svg>
