<svg width="24" height="24" viewBox="0 0 24 24" fill="none" xmlns="http://www.w3.org/2000/svg">
<path d="M3 10V21.5C3 22.3284 3.67157 23 4.5 23H9M21 10V21.5C21 22.3284 20.3284 23 19.5 23H15M9 23V16.5C9 15.6716 9.67157 15 10.5 15H13.5C14.3284 15 15 15.6716 15 16.5V23M9 23H15" stroke="#2E2D30" stroke-width="1.5" stroke-linecap="round" stroke-linejoin="round"/>
<path d="M17.5 7.5L18.4174 9.02899C18.7788 9.6314 19.4299 10 20.1324 10H20.5068C21.7863 10 22.7367 8.81517 22.4591 7.56614L21.261 2.1746C21.1085 1.4883 20.4998 1 19.7967 1H17M17.5 7.5L17.3216 8.39223C17.1346 9.32708 16.3138 10 15.3604 10H14.3541C13.5363 10 12.8008 9.5021 12.4971 8.74278L12 7.5M17.5 7.5L17 1M12 7.5L11.5029 8.74278C11.1992 9.5021 10.4637 10 9.64593 10H8.63961C7.68625 10 6.86542 9.32708 6.67845 8.39223L6.5 7.5M12 7.5V1M6.5 7.5L5.58261 9.02899C5.22116 9.6314 4.57014 10 3.86762 10H3.49323C2.21374 10 1.2633 8.81517 1.54086 7.56614L2.73898 2.1746C2.89149 1.4883 3.50021 1 4.20326 1H7M6.5 7.5L7 1M17 1H12M12 1H7" stroke="#2E2D30" stroke-width="1.5" stroke-linecap="round"/>
</svg>
