<svg width="24" height="24" viewBox="0 0 24 24" fill="none" xmlns="http://www.w3.org/2000/svg">
<path d="M15.3448 10.959C15.5282 10.651 15.7702 10.4127 16.0708 10.244C16.3788 10.068 16.7418 9.98 17.1598 9.98V11.278H16.8408C16.3495 11.278 15.9755 11.4027 15.7188 11.652C15.4695 11.9013 15.3448 12.334 15.3448 12.95V16.14H14.0908V10.079H15.3448V10.959Z" fill="#2E2D30"/>
<path d="M10.398 13.115L13.192 16.14H11.498L9.254 13.533V16.14H8V8H9.254V12.73L11.454 10.079H13.192L10.398 13.115Z" fill="#2E2D30"/>
<path d="M2.5 5.75H21.5V4.25H2.5V5.75ZM22.25 6.5V17.5H23.75V6.5H22.25ZM21.5 18.25H2.5V19.75H21.5V18.25ZM1.75 17.5V6.5H0.25V17.5H1.75ZM2.5 18.25C2.08579 18.25 1.75 17.9142 1.75 17.5H0.25C0.25 18.7426 1.25736 19.75 2.5 19.75V18.25ZM22.25 17.5C22.25 17.9142 21.9142 18.25 21.5 18.25V19.75C22.7426 19.75 23.75 18.7426 23.75 17.5H22.25ZM21.5 5.75C21.9142 5.75 22.25 6.08579 22.25 6.5H23.75C23.75 5.25736 22.7426 4.25 21.5 4.25V5.75ZM2.5 4.25C1.25736 4.25 0.25 5.25736 0.25 6.5H1.75C1.75 6.08579 2.08579 5.75 2.5 5.75V4.25Z" fill="#2E2D30"/>
</svg>
