<svg width="24" height="24" viewBox="0 0 24 24" fill="none" xmlns="http://www.w3.org/2000/svg">
<path d="M7.28571 15H5.71429C3.11066 15 1 17.0392 1 19.6429V20.5C1 21.3284 1.67157 22 2.5 22H7M9.64286 9.3572C9.64286 11.093 8.23575 12.5001 6.5 12.5001C4.76425 12.5001 3.35714 11.093 3.35714 9.3572C3.35714 7.62145 4.76425 6.21435 6.5 6.21435C8.23575 6.21435 9.64286 7.62145 9.64286 9.3572Z" stroke="#2E2D30" stroke-width="1.5" stroke-linecap="round"/>
<path d="M20 6C20 8.20914 18.2091 10 16 10C13.7909 10 12 8.20914 12 6C12 3.79086 13.7909 2 16 2C18.2091 2 20 3.79086 20 6Z" stroke="#2E2D30" stroke-width="1.5"/>
</svg>
