<svg width="24" height="24" viewBox="0 0 24 24" fill="none" xmlns="http://www.w3.org/2000/svg">
<path d="M15.874 6.5C15.9562 6.81962 16 7.1547 16 7.5C16 9.70914 14.2091 11.5 12 11.5C9.79086 11.5 8 9.70914 8 7.5C8 7.1547 8.04375 6.81962 8.12602 6.5M13 14H11C7.68629 14 5 16.6863 5 20V21.5C5 22.3284 5.67157 23 6.5 23H17.5C18.3284 23 19 22.3284 19 21.5V20C19 16.6863 16.3137 14 13 14Z" stroke="#2E2D30" stroke-width="1.5" stroke-linecap="round"/>
<path d="M12 1L5 3.36842L12 6L19 3.36842L12 1Z" stroke="#2E2D30" stroke-width="1.5" stroke-linejoin="round"/>
</svg>
