<svg width="24" height="24" viewBox="0 0 24 24" fill="none" xmlns="http://www.w3.org/2000/svg">
<path d="M14.793 18C14.14 20.3085 12.0176 22 9.5 22C6.46243 22 4 19.5376 4 16.5C4 14.6398 4.92345 12.9954 6.33692 12" stroke="#2E2D30" stroke-width="1.5" stroke-linecap="round"/>
<circle cx="11" cy="4" r="2" stroke="#2E2D30" stroke-width="1.5"/>
<path d="M14 15H17.4922C17.7989 15 18.0747 15.1867 18.1886 15.4715L20 20M14 15H10.6505C10.2772 15 9.96079 14.7256 9.90801 14.3561L9.12229 8.85606C9.05775 8.40424 9.40835 8 9.86476 8H12.3495C12.7228 8 13.0392 8.27445 13.092 8.64393L13.4286 11M14 15L13.4286 11M13.4286 11H17" stroke="#2E2D30" stroke-width="1.5" stroke-linecap="round"/>
</svg>
