<svg width="24" height="24" viewBox="0 0 24 24" fill="none" xmlns="http://www.w3.org/2000/svg">
<g clip-path="url(#clip0_20120_60172)">
<path d="M20.5198 13.89C18.0798 11.6 16.4998 10.18 14.0598 7.88001V3.95001M12.9598 19.96V15.26L17.2998 10.92M12.9298 17.22H6.90984C5.44984 16.08 5.04984 15.76 3.58984 14.63M8.90984 14.7V9.12001C7.81984 7.63001 7.44984 7.16001 6.35984 5.67001" stroke="white" stroke-width="1.5" stroke-linecap="round" stroke-linejoin="round"/>
<path d="M5.41 5.99C6.28813 5.99 7 5.27813 7 4.4C7 3.52187 6.28813 2.81 5.41 2.81C4.53187 2.81 3.82 3.52187 3.82 4.4C3.82 5.27813 4.53187 5.99 5.41 5.99Z" stroke="white" stroke-width="1.5" stroke-linecap="round" stroke-linejoin="round"/>
<path d="M14.01 3.93C14.8881 3.93 15.6 3.21813 15.6 2.34C15.6 1.46187 14.8881 0.75 14.01 0.75C13.1319 0.75 12.42 1.46187 12.42 2.34C12.42 3.21813 13.1319 3.93 14.01 3.93Z" stroke="white" stroke-width="1.5" stroke-linecap="round" stroke-linejoin="round"/>
<path d="M21.62 16.64C22.4981 16.64 23.21 15.9281 23.21 15.05C23.21 14.1719 22.4981 13.46 21.62 13.46C20.7419 13.46 20.03 14.1719 20.03 15.05C20.03 15.9281 20.7419 16.64 21.62 16.64Z" stroke="white" stroke-width="1.5" stroke-linecap="round" stroke-linejoin="round"/>
<path d="M12.95 23.13C13.8281 23.13 14.54 22.4181 14.54 21.54C14.54 20.6619 13.8281 19.95 12.95 19.95C12.0719 19.95 11.36 20.6619 11.36 21.54C11.36 22.4181 12.0719 23.13 12.95 23.13Z" stroke="white" stroke-width="1.5" stroke-linecap="round" stroke-linejoin="round"/>
<path d="M2.34 15.21C3.21813 15.21 3.93 14.4981 3.93 13.62C3.93 12.7419 3.21813 12.03 2.34 12.03C1.46187 12.03 0.75 12.7419 0.75 13.62C0.75 14.4981 1.46187 15.21 2.34 15.21Z" stroke="white" stroke-width="1.5" stroke-linecap="round" stroke-linejoin="round"/>
</g>
<defs>
<clipPath id="clip0_20120_60172">
<rect width="24" height="24" fill="white"/>
</clipPath>
</defs>
</svg>
