<svg width="24" height="24" viewBox="0 0 24 24" fill="none" xmlns="http://www.w3.org/2000/svg">
<path d="M8.7075 1.99805C9.80198 3.00975 10.9057 4.03066 12.0001 5.04236L15.302 1.99805M15.302 22.0022C14.2075 20.9905 13.1038 19.9696 12.0093 18.9579L8.7075 22.0022M12.0001 5.02397V18.9855M1.68994 9.85256C3.11553 9.41109 4.55031 8.96962 5.97589 8.51895L4.98258 4.14102M22.3103 14.1477C20.8848 14.5892 19.45 15.0307 18.0244 15.4813L19.0177 19.8593M5.9575 8.50975L18.0428 15.4905M19.0177 4.14102C18.6866 5.6034 18.3555 7.05658 18.0244 8.51895L22.3103 9.85256M4.98258 19.8593C5.31369 18.3969 5.64479 16.9437 5.97589 15.4813L1.68994 14.1477M18.0428 8.50975L5.9575 15.4905" stroke="white" stroke-width="1.5" stroke-linecap="round" stroke-linejoin="round"/>
</svg>
