<svg width="24" height="24" viewBox="0 0 24 24" fill="none" xmlns="http://www.w3.org/2000/svg">
<path d="M14.0001 23.0001H2.00003L2 3.5C2 2.67158 2.67157 2 3.5 2H12.5C13.3284 2 14 2.67157 14 3.5L14.0001 23.0001ZM14.0001 23.0001L22 23.0002V13.5001C22 12.6717 21.3284 12.0001 20.5 12.0001L14 12" stroke="white" stroke-width="1.5" stroke-linecap="round" stroke-linejoin="round"/>
<path d="M6 15H10M6 12H10M17 19H19M17 16H19M6 9H10M6 6H10" stroke="white" stroke-width="1.5" stroke-linecap="round" stroke-linejoin="round"/>
<path d="M6.75 19C6.33579 19 6 19.3358 6 19.75V22.25C6 22.6642 6.33579 23 6.75 23H9.25C9.66421 23 10 22.6642 10 22.25V19.75C10 19.3358 9.66421 19 9.25 19H6.75Z" stroke="white" stroke-width="1.5"/>
</svg>
