<svg width="24" height="24" viewBox="0 0 24 24" fill="none" xmlns="http://www.w3.org/2000/svg">
<path d="M9 23H5.5C4.67157 23 4 22.3284 4 21.5V2.5C4 1.67157 4.67157 1 5.5 1H18.5C19.3284 1 20 1.67157 20 2.5V9" stroke="white" stroke-width="1.5" stroke-linecap="round" stroke-linejoin="round"/>
<path d="M12.3676 22.9883L16.2873 16.4187M16.2873 16.4187C16.6838 17.5216 17.0746 18.6188 17.4686 19.7193C17.6649 20.2674 18.1846 20.6328 18.7668 20.6328H20.9799M16.2873 16.4187C15.8432 14.8505 15.3793 13.2875 14.9442 11.7169M9 14.8821H10.793C11.3461 14.8821 11.8458 14.5518 12.0633 14.0431C12.2754 13.547 12.4875 13.0519 12.6996 12.5558C12.917 12.0471 13.4167 11.7169 13.9699 11.7169H14.9442M20.0782 14.9281C19.2396 14.0104 18.401 13.0858 17.5624 12.1662C17.3012 11.8798 16.9314 11.7169 16.5438 11.7169H14.9442M16.4898 7.16228C16.4898 8.35843 15.5236 9.32455 14.3275 9.32455C13.1313 9.32455 12.1652 8.35843 12.1652 7.16228C12.1652 5.96612 13.1313 5 14.3275 5C15.5236 5 16.4898 5.96612 16.4898 7.16228Z" stroke="white" stroke-width="1.5" stroke-linecap="round" stroke-linejoin="round"/>
</svg>
