<svg width="24" height="24" viewBox="0 0 24 24" fill="none" xmlns="http://www.w3.org/2000/svg">
<path d="M21.0688 11.4384L20.5269 1H18.123L17.522 11.4286H15.9062C14.5652 10.6623 13.2312 9.90298 11.8923 9.1448C11.5641 8.95892 11.1575 9.19614 11.1575 9.57335V11.4089C9.70563 10.6407 8.26103 9.87262 6.81746 9.1045C6.48933 8.92991 6.09342 9.1677 6.09342 9.53938V11.399C4.64159 10.6309 3.19699 9.86277 1.75342 9.09465C1.4253 8.92006 1.02938 9.15785 1.02938 9.52953V11.7438C1.02096 14.4465 1.02706 18.3975 1.02286 21.4632C1.02175 22.2797 1.68173 22.9427 2.49816 22.9449L21.5182 22.996C22.3359 22.9982 23 22.3359 23 21.5182L22.9998 12.9261C22.9998 12.1099 22.3382 11.4483 21.522 11.4483H21.0491L21.0688 11.4384Z" stroke="white" stroke-width="1.5" stroke-linecap="round" stroke-linejoin="round"/>
<path d="M7.5 16.75C7.5 16.3358 7.16421 16 6.75 16H5.25C4.83579 16 4.5 16.3358 4.5 16.75V18.25C4.5 18.6642 4.83579 19 5.25 19H6.75C7.16421 19 7.5 18.6642 7.5 18.25V16.75Z" stroke="white" stroke-width="1.5" stroke-linecap="round" stroke-linejoin="round"/>
<path d="M13.5 16.75C13.5 16.3358 13.1642 16 12.75 16H11.25C10.8358 16 10.5 16.3358 10.5 16.75V18.25C10.5 18.6642 10.8358 19 11.25 19H12.75C13.1642 19 13.5 18.6642 13.5 18.25V16.75Z" stroke="white" stroke-width="1.5" stroke-linecap="round" stroke-linejoin="round"/>
<path d="M19.5 16.75C19.5 16.3358 19.1642 16 18.75 16H17.25C16.8358 16 16.5 16.3358 16.5 16.75V18.25C16.5 18.6642 16.8358 19 17.25 19H18.75C19.1642 19 19.5 18.6642 19.5 18.25V16.75Z" stroke="white" stroke-width="1.5" stroke-linecap="round" stroke-linejoin="round"/>
</svg>
