<svg width="24" height="24" viewBox="0 0 24 24" fill="none" xmlns="http://www.w3.org/2000/svg">
<path d="M18.0227 19.6494C18.1156 20.2599 18.4474 20.7509 19.0446 21.0959C19.2569 21.2286 19.509 21.3083 19.7612 21.3215C20.4645 21.3879 21.0351 21.1623 21.4731 20.6845C21.8712 20.2466 22.0437 19.729 21.9906 19.1319C21.9641 18.8797 21.8977 18.6807 21.8712 18.6276C21.7916 18.4285 21.6987 18.2693 21.6191 18.1631C21.075 17.4465 20.5441 16.7299 20 16L18.4208 18.11C18.3147 18.256 18.1421 18.5081 18.0493 18.8665C18.0227 18.9594 17.9696 19.2646 18.0227 19.6362V19.6494Z" stroke="white" stroke-width="1.5" stroke-linecap="round" stroke-linejoin="round"/>
<path d="M2.00159 4.37708C2.00107 3.61691 2.61696 3 3.37712 3H8.7559L15.2628 1.71884C16.0186 1.55294 16.7651 2.0322 16.931 2.79718C17.0969 3.55294 16.6085 4.29948 15.8527 4.46538L9.00012 6V9.5C12.1177 8.84065 15.3217 8.26904 18.4777 7.64438C19.9672 7.34956 21.4284 8.29545 21.7464 9.78018L22.0256 11.084C22.1846 11.8265 21.7115 12.5574 20.969 12.7164L18.1384 13.3225L17.8896 12.152L10.0953 13.7723C9.45738 13.9049 9.00012 14.467 9.00012 15.1186V20.625C9.00012 21.3844 8.38451 22 7.62512 22H3.37118C2.61333 22 1.99831 21.3867 1.99685 20.6289C1.98636 15.1783 2.00531 9.83436 2.00159 4.37708Z" stroke="white" stroke-width="1.5" stroke-linecap="round" stroke-linejoin="round"/>
<path d="M2 7.52539H9" stroke="white" stroke-width="1.5" stroke-linecap="round" stroke-linejoin="round"/>
</svg>
