<svg width="24" height="24" viewBox="0 0 24 24" fill="none" xmlns="http://www.w3.org/2000/svg">
<path d="M11.3211 2.44646C11.591 1.87136 12.409 1.87136 12.6789 2.44646L15.2291 7.87967C15.3354 8.10608 15.5476 8.26462 15.7948 8.30239L21.5572 9.1828C22.1606 9.275 22.407 10.011 21.9807 10.448L17.7643 14.7694C17.5981 14.9398 17.5226 15.179 17.5609 15.4139L18.5497 21.4757C18.6505 22.0936 17.9946 22.5557 17.4467 22.2528L12.3628 19.4425C12.1371 19.3177 11.863 19.3177 11.6372 19.4425L6.55334 22.2528C6.00541 22.5557 5.34948 22.0936 5.45027 21.4757L6.43906 15.4139C6.47739 15.179 6.4019 14.9398 6.23566 14.7694L2.01931 10.448C1.593 10.011 1.8394 9.275 2.44285 9.1828L8.2052 8.30239C8.45245 8.26462 8.66459 8.10608 8.77086 7.87967L11.3211 2.44646Z" stroke="white" stroke-width="1.5" stroke-linejoin="round"/>
</svg>
