<svg width="24" height="24" viewBox="0 0 24 24" fill="none" xmlns="http://www.w3.org/2000/svg">
<path d="M1 19.2467C1.31499 19.04 1.62013 18.8234 1.93512 18.6167C3.04743 17.8686 4.81924 17.8686 5.93154 18.6167L5.97092 18.6463C7.07338 19.3944 8.85503 19.3944 9.95749 18.6463L10.0067 18.6167C11.0993 17.8785 12.8515 17.8686 13.9638 18.5971C14.013 18.6266 14.0523 18.6561 14.1016 18.6856C15.204 19.4141 16.9365 19.4042 18.0389 18.6856C18.0685 18.666 18.1078 18.6463 18.1374 18.6266C19.2497 17.8982 21.0018 17.8982 22.0944 18.6463C22.3996 18.853 22.6949 19.0498 23 19.2566" stroke="white" stroke-width="1.5" stroke-linecap="round" stroke-linejoin="round"/>
<path d="M1 22.5346C1.31499 22.3278 1.62013 22.1113 1.93512 21.9046C3.04743 21.1565 4.81924 21.1565 5.93154 21.9046L5.97092 21.9341C7.07338 22.6822 8.85503 22.6822 9.95749 21.9341L10.0067 21.9046C11.0993 21.1663 12.8515 21.1565 13.9638 21.8849C14.013 21.9144 14.0523 21.944 14.1016 21.9735C15.204 22.7019 16.9365 22.6921 18.0389 21.9735C18.0685 21.9538 18.1078 21.9341 18.1374 21.9144C19.2497 21.186 21.0018 21.186 22.0944 21.9341C22.3996 22.1408 22.6949 22.3377 23 22.5444" stroke="white" stroke-width="1.5" stroke-linecap="round" stroke-linejoin="round"/>
<path d="M9.25 5C9.25 5.41421 9.58579 5.75 10 5.75C10.4142 5.75 10.75 5.41421 10.75 5H9.25ZM13.25 5C13.25 5.41421 13.5858 5.75 14 5.75C14.4142 5.75 14.75 5.41421 14.75 5H13.25ZM11.8347 9L12.0441 8.27981C11.9049 8.23935 11.757 8.24009 11.6182 8.28194L11.8347 9ZM5 11.061L5.21653 11.7791L5 11.061ZM20.421 13.2024L21.1257 13.4589L20.421 13.2024ZM19.4214 11.2053L19.2121 11.9255L19.4214 11.2053ZM4.52152 11.2053L4.30499 10.4872L4.52152 11.2053ZM10.75 5V3.5H9.25V5H10.75ZM11.5 2.75H12.5V1.25H11.5V2.75ZM13.25 3.5V5H14.75V3.5H13.25ZM19.1981 18.7743C19.8402 17.1398 20.4958 15.1896 21.1257 13.4589L19.7162 12.9459C19.0657 14.733 18.4365 16.6106 17.8019 18.2257L19.1981 18.7743ZM2.84146 13.4142L4.79563 18.7576L6.20437 18.2424L4.25021 12.899L2.84146 13.4142ZM11.0847 9V17.98H12.5847V9H11.0847ZM6.5 5.75H17.5V4.25H6.5V5.75ZM19.6308 10.4851L19.2093 10.3626L18.7907 11.803L19.2121 11.9255L19.6308 10.4851ZM19.2093 10.3626L12.0441 8.27981L11.6254 9.72019L18.7907 11.803L19.2093 10.3626ZM18.25 6.5V11.0828H19.75V6.5H18.25ZM11.6182 8.28194L4.78347 10.3429L5.21653 11.7791L12.0512 9.71806L11.6182 8.28194ZM4.78347 10.3429L4.30499 10.4872L4.73805 11.9234L5.21653 11.7791L4.78347 10.3429ZM5.75 11.061V6.5H4.25V11.061H5.75ZM17.5 5.75C17.9142 5.75 18.25 6.08579 18.25 6.5H19.75C19.75 5.25736 18.7426 4.25 17.5 4.25V5.75ZM6.5 4.25C5.25736 4.25 4.25 5.25736 4.25 6.5H5.75C5.75 6.08579 6.08579 5.75 6.5 5.75V4.25ZM21.1257 13.4589C21.5722 12.2322 20.9051 10.8555 19.6308 10.4851L19.2121 11.9255C19.6327 12.0477 19.8734 12.514 19.7162 12.9459L21.1257 13.4589ZM4.25021 12.899C4.1021 12.494 4.32519 12.0479 4.73805 11.9234L4.30499 10.4872C3.0664 10.8607 2.39713 12.1992 2.84146 13.4142L4.25021 12.899ZM12.5 2.75C12.9142 2.75 13.25 3.08579 13.25 3.5H14.75C14.75 2.25736 13.7426 1.25 12.5 1.25V2.75ZM10.75 3.5C10.75 3.08579 11.0858 2.75 11.5 2.75V1.25C10.2574 1.25 9.25 2.25736 9.25 3.5H10.75Z" fill="white"/>
</svg>
