<svg width="24" height="24" viewBox="0 0 24 24" fill="none" xmlns="http://www.w3.org/2000/svg">
<path fill-rule="evenodd" clip-rule="evenodd" d="M14.7196 15.2803C15.1921 14.8079 14.8574 14 14.1893 14H5.81059C5.14241 14 4.80778 14.8079 5.28026 15.2803L9.46959 19.4697C9.76249 19.7626 10.2374 19.7626 10.5303 19.4697L14.7196 15.2803ZM21.9999 20C21.9999 21.1 21.0999 22 19.9999 22C18.8999 22 17.9999 21.1 17.9999 20C17.9999 19.64 18.0999 19.29 18.2699 19L19.3502 17.1267C19.6388 16.6262 20.361 16.6262 20.6496 17.1267L21.7299 19C21.8999 19.29 21.9999 19.64 21.9999 20Z" fill="white"/>
<path d="M10 5L2.06066 12.9393C1.47487 13.5251 1.47487 14.4749 2.06066 15.0607L8.93934 21.9393C9.52513 22.5251 10.4749 22.5251 11.0607 21.9393L17.9393 15.0607C18.5251 14.4749 18.5251 13.5251 17.9393 12.9393L10 5ZM10 5L7 2" stroke="white" stroke-width="1.5" stroke-linecap="round"/>
</svg>
