<svg width="24" height="24" viewBox="0 0 24 24" fill="none" xmlns="http://www.w3.org/2000/svg">
<path d="M10.3567 22.98C10.0614 22.8103 7.87823 21.8721 7.61457 18.9574C7.38254 16.392 9.08057 13.8466 11.8544 12.7586C11.538 13.3875 10.8946 14.9347 11.538 16.392C11.6434 16.6216 12.1286 17.7296 12.8247 17.7096C13.0778 17.7096 13.2571 17.5599 13.4997 17.3603C14.027 16.931 14.259 16.422 14.375 16.1025C14.9868 17.0608 15.1239 17.8993 15.1555 18.3584C15.3348 20.7441 13.5524 22.5009 13.236 22.8103C13.1622 22.8902 13.0883 22.9501 13.0461 22.99C13.9215 22.9501 15.5563 22.7305 17.3914 21.3031C18.2141 20.6642 18.4981 20.4602 19.1905 19.5652C19.8829 18.6701 20.2174 18.1191 20.7136 16.6416C21.4353 14.493 20.8508 10.5926 18.2984 6.58984C18.2035 7.47822 18.2141 8.11706 18.2457 8.5363C18.2457 8.56624 18.2457 8.74592 18.2563 8.98548C18.2563 9.82396 18.193 10.1234 17.9504 10.323C17.7289 10.5127 17.4231 10.5426 17.3703 10.5426C17.2859 10.5426 17.0434 10.5626 16.6637 10.3929C16.1364 10.1534 15.841 9.76407 15.7567 9.65427C14.8391 8.44646 14.7547 6.57985 14.7547 6.57985C14.6598 4.27405 15.3453 2.23775 15.8621 1C14.4172 1.37931 12.5821 2.05808 10.8419 3.33575C9.46025 4.3539 8.76416 5.27223 8.60596 5.49183C7.94152 6.40018 7.60402 7.21869 7.43527 7.6579C7.02395 8.69601 6.84465 9.62432 6.77082 10.2931C6.76028 10.353 6.63372 10.8621 6.13802 11.0817C6.12747 11.0817 6.10638 11.0917 6.08528 11.1016C5.80052 11.1515 5.60013 11.1016 5.48412 11.0617C4.90405 10.8521 4.53491 10.0835 4.62983 9.15517C2.48884 12.4592 2.4572 16.4719 4.53491 19.3866C6.46497 22.0817 9.51298 22.8303 10.3567 23V22.98Z" stroke="white" stroke-width="1.5" stroke-linecap="round" stroke-linejoin="round"/>
</svg>
