<svg width="24" height="24" viewBox="0 0 24 24" fill="none" xmlns="http://www.w3.org/2000/svg">
<path d="M13.5 21.5H10.5V20.5H13.5V21.5ZM13.5 21.5C16.5 21.5 19 21.5 20 18.5" stroke="white" stroke-width="1.5" stroke-linecap="round" stroke-linejoin="round"/>
<path d="M21 10C21 5.02944 16.9706 2 12 2C7.02944 2 3 5.02944 3 10M21 10V14.5C21 15.3284 20.3284 16 19.5 16H19C18.1716 16 17.5 15.3284 17.5 14.5V11.5C17.5 10.6716 18.1716 10 19 10H21ZM3 10V14.5C3 15.3284 3.67157 16 4.5 16H5C5.82843 16 6.5 15.3284 6.5 14.5V11.5C6.5 10.6716 5.82843 10 5 10H3Z" stroke="white" stroke-width="1.5" stroke-linecap="round" stroke-linejoin="round"/>
</svg>
