<svg width="24" height="24" viewBox="0 0 24 24" fill="none" xmlns="http://www.w3.org/2000/svg">
<path d="M16 5L18 7L21 4" stroke="white" stroke-width="1.5" stroke-linecap="round" stroke-linejoin="round"/>
<path d="M16 12L18 14L21 11" stroke="white" stroke-width="1.5" stroke-linecap="round" stroke-linejoin="round"/>
<path d="M2 4.5C2 3.67157 2.67157 3 3.5 3H11.5C12.3284 3 13 3.67157 13 4.5V5.5C13 6.32843 12.3284 7 11.5 7H3.5C2.67157 7 2 6.32843 2 5.5V4.5Z" stroke="white" stroke-width="1.5"/>
<path d="M2 12C2 11.1716 2.67157 10.5 3.5 10.5H11.5C12.3284 10.5 13 11.1716 13 12V13C13 13.8284 12.3284 14.5 11.5 14.5H3.5C2.67157 14.5 2 13.8284 2 13V12Z" stroke="white" stroke-width="1.5"/>
<path d="M2 19.5C2 18.6716 2.67157 18 3.5 18H11.5C12.3284 18 13 18.6716 13 19.5V20.5C13 21.3284 12.3284 22 11.5 22H3.5C2.67157 22 2 21.3284 2 20.5V19.5Z" stroke="white" stroke-width="1.5"/>
</svg>
