<svg width="24" height="24" viewBox="0 0 24 24" fill="none" xmlns="http://www.w3.org/2000/svg">
<path d="M13 13.5V13.5C11.6193 14.8807 9.38071 14.8807 8 13.5L7.5 13C5.84315 11.3431 5.84314 8.65686 7.5 7L11.5 3C13.1569 1.34315 15.8431 1.34315 17.5 3L18 3.5C19.3807 4.88071 19.3807 7.11929 18 8.5V8.5M11 10.5V10.5C12.3807 9.11929 14.6193 9.11929 16 10.5L16.5 11C18.1569 12.6569 18.1569 15.3431 16.5 17L12.5 21C10.8431 22.6569 8.15685 22.6569 6.5 21L6 20.5C4.61929 19.1193 4.61929 16.8807 6 15.5V15.5" stroke="white" stroke-width="1.5" stroke-linecap="round"/>
</svg>
