<svg width="24" height="24" viewBox="0 0 24 24" fill="none" xmlns="http://www.w3.org/2000/svg">
<path d="M19 11.9999H23M1 11.9999H5M12 18.9999V22.9999M12 0.999939V4.99994M18.9951 11.9951C18.9951 15.8611 15.8611 18.9951 11.9951 18.9951C8.12907 18.9951 4.99506 15.8611 4.99506 11.9951C4.99506 8.12916 8.12907 4.99515 11.9951 4.99515C15.8611 4.99515 18.9951 8.12916 18.9951 11.9951Z" stroke="white" stroke-width="1.5" stroke-linecap="round" stroke-linejoin="round"/>
<path d="M12 15.0001C13.6569 15.0001 15 13.6569 15 12.0001C15 10.3432 13.6569 9.00006 12 9.00006C10.3431 9.00006 9 10.3432 9 12.0001C9 13.6569 10.3431 15.0001 12 15.0001Z" stroke="white" stroke-width="1.5" stroke-linecap="round" stroke-linejoin="round"/>
</svg>
