<svg width="24" height="24" viewBox="0 0 24 24" fill="none" xmlns="http://www.w3.org/2000/svg">
<path d="M17 10V6C17 5 17 1 12 1C7 1 7 5 7 6V10M7 10H6.5C5.67157 10 5 10.6716 5 11.5V21.5C5 22.3284 5.67157 23 6.5 23H17.5C18.3284 23 19 22.3284 19 21.5V11.5C19 10.6716 18.3284 10 17.5 10H7Z" stroke="white" stroke-width="1.5" stroke-linecap="round"/>
<path d="M12 20V17M12 17C11.3333 17 10 16.6 10 15C10 13.4 11.3333 13 12 13C12.6667 13 14 13.4 14 15C14 16.6 12.6667 17 12 17Z" stroke="white" stroke-width="1.5" stroke-linecap="round"/>
</svg>
