<svg width="24" height="24" viewBox="0 0 24 24" fill="none" xmlns="http://www.w3.org/2000/svg">
<path d="M3 10.5V21.5C3 22.3284 3.67157 23 4.5 23H19.5C20.3284 23 21 22.3284 21 21.5V10.5M3 10.5L10.9393 2.56066C11.5251 1.97487 12.4749 1.97487 13.0607 2.56066L21 10.5M3 10.5L1.5 12M21 10.5L22.5 12" stroke="white" stroke-width="1.5" stroke-linecap="round" stroke-linejoin="round"/>
<path d="M18.2593 20.2593L14.234 16.234M14.234 16.234C14.9734 15.4947 15.4307 14.4732 15.4307 13.345C15.4307 11.0885 13.6015 9.25928 11.345 9.25928C9.08851 9.25928 7.25928 11.0885 7.25928 13.345C7.25928 15.6015 9.08851 17.4307 11.345 17.4307C12.4732 17.4307 13.4947 16.9734 14.234 16.234Z" stroke="white" stroke-width="1.5" stroke-linecap="round" stroke-linejoin="round"/>
</svg>
