<svg width="24" height="24" viewBox="0 0 24 24" fill="none" xmlns="http://www.w3.org/2000/svg">
<path d="M8.56834 8.89388C8.56834 5.79766 9.85432 3.00809 11.902 1C6.34263 1.58363 2 6.23291 2 11.9406C2 18.0441 6.94604 23 13.0594 23C16.0665 23 18.7869 21.7932 20.7851 19.8345C20.3993 19.8741 20.0234 19.9532 19.6277 19.9532C13.5243 19.9532 8.56834 15.0072 8.56834 8.89388Z" stroke="white" stroke-width="1.5" stroke-linecap="round" stroke-linejoin="round"/>
<path fill-rule="evenodd" clip-rule="evenodd" d="M17.75 7.55556C18.2593 5.7037 18.6759 5.28704 20.5 4.77778C18.6667 4.25926 18.2593 3.84259 17.75 2C17.2407 3.85185 16.8241 4.26852 15 4.77778C16.8333 5.2963 17.2407 5.71296 17.75 7.55556Z" stroke="white" stroke-width="1.5" stroke-linecap="round" stroke-linejoin="round"/>
<path d="M19 12.5H22M20.505 11V14" stroke="white" stroke-width="1.5" stroke-linecap="round" stroke-linejoin="round"/>
</svg>
