<svg width="24" height="24" viewBox="0 0 24 24" fill="none" xmlns="http://www.w3.org/2000/svg">
<path d="M9.2583 9.8485C8.44479 10.2315 7.63152 10.6148 6.8186 10.9985V10.969C5.96351 10.5955 5.11823 10.2318 4.26314 9.85833C4.07639 9.78953 3.81101 9.70107 3.47684 9.68141C3.00506 9.65193 2.63157 9.76987 2.41534 9.8485C1.94356 10.0549 1.47178 10.2711 1 10.4775C2.23842 11.6865 3.47684 12.8954 4.72509 14.1142C5.03961 14.3206 5.58018 14.6154 6.30751 14.7334C7.48696 14.9201 8.41086 14.527 8.76469 14.3599C9.90482 13.8586 11.045 13.3574 12.1851 12.8561C12.077 15.0774 11.959 17.2987 11.8509 19.5298C12.1065 19.52 12.3718 19.5101 12.6274 19.4905C12.8829 19.3922 13.2662 19.2153 13.6594 18.8713C14.0525 18.5273 14.2786 18.1636 14.4064 17.9277C15.4875 15.3133 16.5687 12.689 17.6499 10.0746C18.5246 9.5733 19.2716 9.26861 19.7729 9.02289C20.4805 8.66906 21.1882 8.31522 21.8959 7.97122C22.0236 7.91224 22.7313 7.5879 22.9377 6.85074C22.977 6.72297 23.0557 6.41828 22.9377 6.10376C22.7411 5.56318 22.1121 5.3666 21.6108 5.20935C21.198 5.08157 20.4412 4.90465 19.4485 5.06191C17.5555 5.95092 15.6605 6.83992 13.7653 7.72982M9.2583 9.8485L5.23633 6.29027L5.75725 5.94626C5.88502 5.86763 6.20937 5.7202 6.66149 5.63174C7.1431 5.54328 7.56574 5.56294 7.85077 5.61208C9.76601 6.29541 13.7653 7.72982 13.7653 7.72982M9.2583 9.8485C10.7602 9.14142 12.2628 8.43534 13.7653 7.72982" stroke="white" stroke-width="1.5" stroke-linecap="round" stroke-linejoin="round"/>
</svg>
