<svg width="24" height="24" viewBox="0 0 24 24" fill="none" xmlns="http://www.w3.org/2000/svg">
<path d="M21 21.5V2.5C21 1.67157 20.3284 1 19.5 1H8.12132C7.7235 1 7.34196 1.15803 7.06066 1.43934L3.43934 5.06066C3.15804 5.34196 3 5.7235 3 6.12132V21.5C3 22.3284 3.67157 23 4.5 23H19.5C20.3284 23 21 22.3284 21 21.5Z" stroke="white" stroke-width="1.5" stroke-linecap="round" stroke-linejoin="round"/>
<path d="M12.0244 6.97206C12.0244 8.0612 12.9073 8.94413 13.9965 8.94413C14.2718 8.94413 14.534 8.88769 14.772 8.78578C15.4756 8.48453 15.9685 7.78587 15.9685 6.97206C15.9685 5.88293 15.0856 5 13.9965 5C12.9073 5 12.0244 5.88293 12.0244 6.97206Z" stroke="white" stroke-width="1.5" stroke-linecap="round" stroke-linejoin="round"/>
<path d="M11 10.8968C11.3134 10.3008 11.7538 9.80823 12.2789 9.46642C12.804 9.12461 13.3962 8.94507 13.9985 8.94507C14.6008 8.94507 15.1929 9.12461 15.7181 9.46642C16.2432 9.80823 16.6836 10.3008 16.9969 10.8968" stroke="white" stroke-width="1.5" stroke-linecap="round" stroke-linejoin="round"/>
<path d="M7 15H17" stroke="white" stroke-width="1.5" stroke-linecap="round"/>
<path d="M7 18H14" stroke="white" stroke-width="1.5" stroke-linecap="round"/>
</svg>
