<svg width="24" height="24" viewBox="0 0 24 24" fill="none" xmlns="http://www.w3.org/2000/svg">
<path d="M20.1526 7.98347C20.1557 7.98035 20.1571 7.97592 20.1565 7.97156C19.7883 5.47772 18.3915 3.4291 15.9463 1.99368C15.0446 1.46852 14.0141 1.14153 12.9737 1.04245C10.0705 0.784821 7.70232 1.70633 5.91876 3.67815C4.27392 5.49144 3.58032 7.63171 3.79831 10.0692C3.89739 11.1394 4.18474 11.9123 4.28383 12.1699C4.60091 13.0121 5.00716 13.6463 5.33415 14.0823C7.35366 16.787 9.38136 19.4916 11.4023 22.1963C11.7022 22.5976 12.3037 22.598 12.6039 22.197L18.5226 14.2903C18.9784 13.7057 19.672 12.6554 20.0287 11.1691C20.1276 10.7635 20.3748 9.54773 20.1486 7.99541C20.148 7.99105 20.1495 7.98659 20.1526 7.98347V7.98347Z" stroke="white" stroke-width="1.5" stroke-linecap="round" stroke-linejoin="round"/>
<path d="M11.9926 11.9025C13.4647 11.9025 14.658 10.7091 14.658 9.23703C14.658 7.76495 13.4647 6.57159 11.9926 6.57159C10.5205 6.57159 9.32715 7.76495 9.32715 9.23703C9.32715 10.7091 10.5205 11.9025 11.9926 11.9025Z" stroke="white" stroke-width="1.5" stroke-linecap="round" stroke-linejoin="round"/>
</svg>
