<svg width="24" height="24" viewBox="0 0 24 24" fill="none" xmlns="http://www.w3.org/2000/svg">
<path d="M20.1526 7.98341C20.1557 7.98029 20.1571 7.97586 20.1565 7.9715C19.7883 5.47766 18.3915 3.42904 15.9463 1.99362C15.0446 1.46846 14.0141 1.14147 12.9737 1.04239C10.0705 0.78476 7.70232 1.70627 5.91876 3.67809C4.27392 5.49138 3.58032 7.63165 3.79831 10.0692C3.89739 11.1393 4.18474 11.9122 4.28383 12.1698C4.60091 13.0121 5.00716 13.6462 5.33415 14.0822C7.35366 16.7869 9.38136 19.4916 11.4023 22.1963C11.7022 22.5976 12.3037 22.5979 12.6039 22.1969L18.5226 14.2903C18.9784 13.7057 19.672 12.6553 20.0287 11.169C20.1276 10.7634 20.3748 9.54767 20.1486 7.99535C20.148 7.99099 20.1495 7.98653 20.1526 7.98341V7.98341Z" stroke="white" stroke-width="1.5" stroke-linecap="round" stroke-linejoin="round"/>
<path d="M13.4528 9.07298C13.8635 9.14631 14.2118 9.36265 14.4978 9.72198C14.7838 10.0813 14.9268 10.4883 14.9268 10.943C14.9268 11.3316 14.8242 11.6836 14.6188 11.999C14.4208 12.307 14.1312 12.5526 13.7498 12.736C13.3685 12.912 12.9248 13 12.4188 13H9.36084V5.35498H12.2758C12.7965 5.35498 13.2438 5.44298 13.6178 5.61898C13.9918 5.79498 14.2742 6.03331 14.4648 6.33398C14.6555 6.62731 14.7508 6.95731 14.7508 7.32398C14.7508 7.76398 14.6335 8.13065 14.3988 8.42398C14.1642 8.71731 13.8488 8.93365 13.4528 9.07298ZM10.6148 8.56698H12.1658C12.5765 8.56698 12.8955 8.47531 13.1228 8.29198C13.3575 8.10131 13.4748 7.82998 13.4748 7.47798C13.4748 7.13331 13.3575 6.86565 13.1228 6.67498C12.8955 6.47698 12.5765 6.37798 12.1658 6.37798H10.6148V8.56698ZM12.3088 11.977C12.7342 11.977 13.0678 11.8743 13.3098 11.669C13.5518 11.4636 13.6728 11.1776 13.6728 10.811C13.6728 10.437 13.5445 10.14 13.2878 9.91998C13.0312 9.69998 12.6902 9.58998 12.2648 9.58998H10.6148V11.977H12.3088Z" fill="white"/>
</svg>
