<svg width="24" height="24" viewBox="0 0 24 24" fill="none" xmlns="http://www.w3.org/2000/svg">
<path d="M6 1.5H3C2.17157 1.5 1.5 2.17157 1.5 3V21C1.5 21.8284 2.17157 22.5 3 22.5H21C21.8284 22.5 22.5 21.8284 22.5 21V5.62132C22.5 5.2235 22.342 4.84196 22.0607 4.56066L19.4393 1.93934C19.158 1.65803 18.7765 1.5 18.3787 1.5H16M6 1.5V5.5C6 6.32843 6.67157 7 7.5 7H14.5C15.3284 7 16 6.32843 16 5.5V1.5M6 1.5H16M6 16.5V12.5C6 11.6716 6.67157 11 7.5 11H16.5C17.3284 11 18 11.6716 18 12.5V16.5C18 17.3284 17.3284 18 16.5 18H7.5C6.67157 18 6 17.3284 6 16.5Z" stroke="white" stroke-width="1.5" stroke-linecap="square"/>
</svg>
