<svg width="24" height="24" viewBox="0 0 24 24" fill="none" xmlns="http://www.w3.org/2000/svg">
<path d="M1 3H1.84758C2.52716 3 3.12183 3.45688 3.29693 4.11351L3.8 6M7 18H20M7 18L5.93333 14M7 18C5.89543 18 5 18.8954 5 20C5 21.1046 5.89543 22 7 22C8.10457 22 9 21.1046 9 20C9 18.8954 8.10457 18 7 18ZM20 18C18.8954 18 18 18.8954 18 20C18 21.1046 18.8954 22 20 22C21.1046 22 22 21.1046 22 20C22 18.8954 21.1046 18 20 18ZM3.8 6L5.93333 14M3.8 6H21.0788C22.0547 6 22.7707 6.91708 22.534 7.8638L21.284 12.8638C21.1171 13.5316 20.5171 14 19.8288 14H5.93333" stroke="white" stroke-width="1.5" stroke-linecap="round"/>
</svg>
