<svg width="24" height="24" viewBox="0 0 24 24" fill="none" xmlns="http://www.w3.org/2000/svg">
<path d="M2 1.99993L9.5 1.99121M22 1.99993L14.5 1.99121M12 7.99121C11.3119 7.31073 10.6303 6.62382 9.94448 5.94106C9.6605 5.65834 9.5 5.27442 9.5 4.8737V1.99121M12 7.99121C12.6881 7.31073 13.3697 6.62382 14.0555 5.94106C14.3395 5.65833 14.5 5.27442 14.5 4.8737V1.99121M12 7.99121V9.99121M9.5 9.99121H14.5M14.5 1.99121H9.5" stroke="white" stroke-width="1.5" stroke-linecap="round" stroke-linejoin="round"/>
<path d="M13.8389 14.5437L16.4932 22.4423M16.3642 13.5852L22.1614 18.7281M10.1522 14.5437L7.50707 22.4423M7.6361 13.5852L1.83887 18.7281" stroke="white" stroke-width="1.5" stroke-linecap="round" stroke-linejoin="round" stroke-dasharray="1.84 2.76"/>
</svg>
