<svg width="24" height="24" viewBox="0 0 24 24" fill="none" xmlns="http://www.w3.org/2000/svg">
<path d="M4 2.5C4 3.32843 3.32843 4 2.5 4M4 2.5C4 1.67157 3.32843 1 2.5 1C1.67157 1 1 1.67157 1 2.5C1 3.32843 1.67157 4 2.5 4M4 2.5H20M2.5 4V20M4 21.5C4 22.3284 3.32843 23 2.5 23C1.67157 23 1 22.3284 1 21.5C1 20.6716 1.67157 20 2.5 20M4 21.5C4 20.6716 3.32843 20 2.5 20M4 21.5H20M21.5 4C22.3284 4 23 3.32843 23 2.5C23 1.67157 22.3284 1 21.5 1C20.6716 1 20 1.67157 20 2.5M21.5 4C20.6716 4 20 3.32843 20 2.5M21.5 4V20M20 21.5C20 22.3284 20.6716 23 21.5 23C22.3284 23 23 22.3284 23 21.5C23 20.6716 22.3284 20 21.5 20M20 21.5C20 20.6716 20.6716 20 21.5 20" stroke="white" stroke-width="1.5"/>
</svg>
