<svg width="24" height="24" viewBox="0 0 24 24" fill="none" xmlns="http://www.w3.org/2000/svg">
<path d="M12 5C13.1046 5 14 4.10457 14 3C14 1.89543 13.1046 1 12 1C10.8954 1 10 1.89543 10 3C10 4.10457 10.8954 5 12 5Z" stroke="white" stroke-width="1.5" stroke-linecap="round" stroke-linejoin="round"/>
<path d="M10.0368 18.5807V13.8374C10.0368 13.7711 10.0272 13.5251 9.8352 13.317C9.7008 13.1656 9.5376 13.1088 9.4704 13.0899C9.3456 13.0426 9.192 12.9574 9.096 12.806C9.0192 12.683 9 12.5506 9 12.5127C9 10.838 9 10.094 9 8.41928C9 7.63394 9.6432 7 10.44 7H13.56C14.3568 7 15 7.63394 15 8.41928C15 10.1035 15 10.8474 15 12.5411C14.9808 12.6168 14.9136 12.8533 14.6832 13.0142C14.5584 13.1088 14.4336 13.1372 14.3568 13.1561C14.2896 13.194 14.1744 13.2697 14.088 13.4021C13.9536 13.6008 13.9536 13.809 13.9632 13.8847V18.5807C13.9632 18.6753 13.9632 19.1768 13.5408 19.5837C13.2816 19.8391 12.9168 20 12.5232 20H11.496C10.6992 20 10.056 19.3661 10.056 18.5807H10.0368Z" stroke="white" stroke-width="1.5" stroke-linecap="round" stroke-linejoin="round"/>
<path d="M17.0349 17C20.5785 17.5276 23 18.5951 23 19.8221C23 21.5767 18.0783 23 12.0049 23C5.93154 23 1 21.5767 1 19.8221C1 18.5951 3.41163 17.5276 6.93557 17" stroke="white" stroke-width="1.5" stroke-linecap="round" stroke-linejoin="round"/>
</svg>
