<svg width="24" height="24" viewBox="0 0 24 24" fill="none" xmlns="http://www.w3.org/2000/svg">
<path d="M7.5 17C6.67157 17 6 17.6716 6 18.5C6 19.3284 6.67157 20 7.5 20C8.32843 20 9 19.3284 9 18.5C9 17.6716 8.32843 17 7.5 17ZM7.5 17L7.5 4" stroke="white" stroke-width="1.5" stroke-linecap="round" stroke-linejoin="round"/>
<path d="M10.4543 14.9683V4.01315C10.4543 2.34694 9.1337 1 7.5 1C5.8663 1 4.54565 2.34694 4.54565 4.01315V14.9683C3.60652 15.8063 3 17.0336 3 18.4104C3 20.9447 5.01522 23 7.5 23C9.98478 23 12 20.9447 12 18.4104C12 17.0336 11.3935 15.8063 10.4543 14.9683Z" stroke="white" stroke-width="1.5" stroke-linecap="round" stroke-linejoin="round"/>
<path d="M18 7V15M14 11H22" stroke="white" stroke-width="1.5" stroke-linecap="round" stroke-linejoin="round"/>
</svg>
