<svg width="24" height="24" viewBox="0 0 24 24" fill="none" xmlns="http://www.w3.org/2000/svg">
<path d="M12 2.81763V21.1823M12 2.81763H21.5C22.3284 2.81763 23 3.4892 23 4.31763V12M12 2.81763H2.5C1.67157 2.81763 1 3.4892 1 4.31763V12M1 12L23 12M1 12V19.6823C1 20.5108 1.67157 21.1823 2.5 21.1823H12M23 12V19.6823C23 20.5108 22.3284 21.1823 21.5 21.1823H12" stroke="white" stroke-width="1.5" stroke-linecap="round" stroke-linejoin="round"/>
<path d="M3.2583 15.3183L4.33799 14.2386" stroke="white" stroke-width="1.5" stroke-linecap="round" stroke-linejoin="round"/>
<path d="M9.0332 18.9438L9.7464 18.2306" stroke="white" stroke-width="1.5" stroke-linecap="round" stroke-linejoin="round"/>
<path d="M5.92285 18.9337L9.72654 15.1201" stroke="white" stroke-width="1.5" stroke-linecap="round" stroke-linejoin="round"/>
<path d="M3.24854 18.4584L7.45835 14.2485" stroke="white" stroke-width="1.5" stroke-linecap="round" stroke-linejoin="round"/>
</svg>
