<svg width="24" height="24" viewBox="0 0 24 24" fill="none" xmlns="http://www.w3.org/2000/svg">
<path d="M2 11.5C2 10.6716 2.67157 10 3.5 10H14.5C15.3284 10 16 10.6716 16 11.5V21.5C16 22.3284 15.3284 23 14.5 23H3.5C2.67157 23 2 22.3284 2 21.5V11.5Z" stroke="white" stroke-width="1.5" stroke-linecap="round"/>
<path d="M13 10V6C13 5 13 1 18 1C23 1 23 5 23 6V8" stroke="white" stroke-width="1.5" stroke-linecap="round"/>
<path d="M9 20V17M9 17C8.33333 17 7 16.6 7 15C7 13.4 8.33333 13 9 13C9.66667 13 11 13.4 11 15C11 16.6 9.66667 17 9 17Z" stroke="white" stroke-width="1.5" stroke-linecap="round"/>
</svg>
