<svg width="24" height="24" viewBox="0 0 24 24" fill="none" xmlns="http://www.w3.org/2000/svg">
<path d="M12 6C12 8.20914 10.2091 10 8 10C5.79086 10 4 8.20914 4 6C4 3.79086 5.79086 2 8 2C10.2091 2 12 3.79086 12 6Z" stroke="white" stroke-width="1.5"/>
<path d="M19.3624 5.74246V5.00002M19.3624 5.74246H21.5897M19.3624 5.74246V8.22734M19.3624 8.22734H20.8473M19.3624 8.22734L19.3624 12.6605M19.3624 12.6605C19.967 12.6605 20.5716 12.8912 21.0329 13.3525C21.9555 14.275 21.9555 15.7709 21.0329 16.6934C20.1103 17.616 18.6145 17.616 17.6919 16.6934C16.7694 15.7709 16.7694 14.275 17.6919 13.3525C18.1532 12.8912 18.7578 12.6605 19.3624 12.6605Z" stroke="white" stroke-width="1.5" stroke-linecap="round"/>
</svg>
