<svg width="24" height="24" viewBox="0 0 24 24" fill="none" xmlns="http://www.w3.org/2000/svg">
<path d="M12.7401 9.68288V17.3329L4.87012 14.9729V7.32288" stroke="white" stroke-width="1.5" stroke-linecap="round" stroke-linejoin="round"/>
<path d="M4 7.98299L8.81 3.94299" stroke="white" stroke-width="1.5" stroke-linecap="round" stroke-linejoin="round"/>
<path d="M21.2098 8.62298L16.3798 1.68298C13.8598 2.44298 11.3398 3.19298 8.81982 3.95298C10.4298 6.26298 12.0298 8.57298 13.6398 10.883C16.1698 10.133 18.6898 9.38298 21.2198 8.63298L21.2098 8.62298Z" stroke="white" stroke-width="1.5" stroke-linecap="round" stroke-linejoin="round"/>
<path d="M12.7402 17.3229C15.2602 16.5629 17.7902 15.8029 20.3102 15.0429V9.32288" stroke="white" stroke-width="1.5" stroke-linecap="round" stroke-linejoin="round"/>
<path d="M12 20.933C11.5858 20.933 11.25 21.2688 11.25 21.683C11.25 22.0972 11.5858 22.433 12 22.433V20.933ZM20.8527 13.1412C20.4871 12.9464 20.0329 13.0849 19.8381 13.4504C19.6433 13.816 19.7818 14.2703 20.1473 14.465L20.8527 13.1412ZM5.03938 13.8838C5.42888 13.7429 5.63036 13.3129 5.48941 12.9234C5.34845 12.5339 4.91844 12.3324 4.52895 12.4733L5.03938 13.8838ZM7.0234 21.1665L7.36598 21.8337C7.73446 21.6445 7.87979 21.1924 7.69059 20.8239L7.0234 21.1665ZM6.46069 18.4286C6.27149 18.0601 5.8194 17.9148 5.45092 18.104C5.08245 18.2932 4.93711 18.7453 5.12632 19.1138L6.46069 18.4286ZM4.28554 21.7292C3.91706 21.9184 3.77173 22.3705 3.96093 22.739C4.15013 23.1074 4.60222 23.2528 4.9707 23.0636L4.28554 21.7292ZM22.25 16.8629C22.25 17.2806 22.0599 17.7375 21.5959 18.2182C21.1284 18.7025 20.4158 19.1729 19.4772 19.5843C17.602 20.406 14.959 20.933 12 20.933V22.433C15.1161 22.433 17.9731 21.881 20.0792 20.9582C21.1311 20.4972 22.0294 19.929 22.6752 19.2599C23.3245 18.5873 23.75 17.7761 23.75 16.8629H22.25ZM20.1473 14.465C21.6432 15.262 22.25 16.1342 22.25 16.8629H23.75C23.75 15.268 22.481 14.0088 20.8527 13.1412L20.1473 14.465ZM1.75 16.8629C1.75 15.8788 2.65092 14.7482 5.03938 13.8838L4.52895 12.4733C2.0314 13.3772 0.25 14.8533 0.25 16.8629H1.75ZM7.18909 20.435C5.48054 20.048 4.07406 19.4686 3.11444 18.7987C2.13745 18.1166 1.75 17.4381 1.75 16.8629H0.25C0.25 18.153 1.10548 19.2256 2.2558 20.0286C3.4235 20.8438 5.02871 21.4836 6.8577 21.8979L7.18909 20.435ZM7.69059 20.8239L6.46069 18.4286L5.12632 19.1138L6.35621 21.5091L7.69059 20.8239ZM6.68082 20.4993L4.28554 21.7292L4.9707 23.0636L7.36598 21.8337L6.68082 20.4993Z" fill="white"/>
</svg>
