<svg width="24" height="24" viewBox="0 0 24 24" fill="none" xmlns="http://www.w3.org/2000/svg">
<path d="M17.0117 5.97502C16.4003 5.97502 15.85 5.60388 15.621 5.03696L15.379 4.43813C15.15 3.8712 14.5997 3.50006 13.9883 3.50006H10.0117C9.40029 3.50006 8.85004 3.8712 8.62098 4.43813L8.37902 5.03696C8.14996 5.60388 7.59971 5.97502 6.98826 5.97502H2.5C1.67157 5.97502 1 6.6466 1 7.47502V18.5001C1 19.3285 1.67157 20.0001 2.5 20.0001H21.5C22.3284 20.0001 23 19.3285 23 18.5001V7.47502C23 6.6466 22.3284 5.97502 21.5 5.97502H17.0117Z" stroke="white" stroke-width="1.5" stroke-linecap="round" stroke-linejoin="round"/>
<path d="M12 17C14.2091 17 16 15.2091 16 13C16 10.7909 14.2091 9 12 9C9.79086 9 8 10.7909 8 13C8 15.2091 9.79086 17 12 17Z" stroke="white" stroke-width="1.5" stroke-linecap="round" stroke-linejoin="round"/>
<path d="M19 9H20.31" stroke="white" stroke-width="1.5" stroke-linecap="round" stroke-linejoin="round"/>
</svg>
