<svg width="24" height="24" viewBox="0 0 24 24" fill="none" xmlns="http://www.w3.org/2000/svg">
<path d="M1 18.1911C1.31499 17.9843 1.62013 17.7678 1.93512 17.5611C3.04743 16.813 4.81924 16.813 5.93154 17.5611L5.97092 17.5906C7.07338 18.3387 8.85503 18.3387 9.95749 17.5906L10.0067 17.5611C11.0993 16.8228 12.8515 16.813 13.9638 17.5414C14.013 17.5709 14.0523 17.6004 14.1016 17.63C15.204 18.3584 16.9365 18.3485 18.0389 17.63C18.0685 17.6103 18.1078 17.5906 18.1374 17.5709C19.2497 16.8425 21.0018 16.8425 22.0944 17.5906C22.3996 17.7973 22.6949 17.9942 23 18.2009" stroke="white" stroke-width="1.5" stroke-linecap="round" stroke-linejoin="round"/>
<path d="M1 3H6" stroke="white" stroke-width="1.5" stroke-linecap="round" stroke-linejoin="round"/>
<path d="M6 10H1" stroke="white" stroke-width="1.5" stroke-linecap="round" stroke-linejoin="round"/>
<path d="M8.2953 2H6.7047C6.3155 2 6 2.3155 6 2.7047V10.2953C6 10.6845 6.3155 11 6.7047 11H8.2953C8.6845 11 9 10.6845 9 10.2953V2.7047C9 2.3155 8.6845 2 8.2953 2Z" stroke="white" stroke-width="1.5" stroke-linecap="round" stroke-linejoin="round"/>
<path d="M1 22.1911C1.31499 21.9843 1.62013 21.7678 1.93512 21.5611C3.04743 20.813 4.81924 20.813 5.93154 21.5611L5.97092 21.5906C7.07338 22.3387 8.85503 22.3387 9.95749 21.5906L10.0067 21.5611C11.0993 20.8228 12.8515 20.813 13.9638 21.5414C14.013 21.5709 14.0523 21.6004 14.1016 21.63C15.204 22.3584 16.9365 22.3485 18.0389 21.63C18.0685 21.6103 18.1078 21.5906 18.1374 21.5709C19.2497 20.8425 21.0018 20.8425 22.0944 21.5906C22.3996 21.7973 22.6949 21.9942 23 22.2009" stroke="white" stroke-width="1.5" stroke-linecap="round" stroke-linejoin="round"/>
<path d="M9 10C11.7333 10 12 11.5718 12 13.5012V14" stroke="white" stroke-width="1.5" stroke-linecap="round" stroke-linejoin="round"/>
<path d="M9 6H9.55273C13.6642 6 17 8.77647 17 12.1929V14" stroke="white" stroke-width="1.5" stroke-linecap="round" stroke-linejoin="round"/>
</svg>
