<svg width="24" height="24" viewBox="0 0 24 24" fill="none" xmlns="http://www.w3.org/2000/svg">
<path d="M14.5 4C16.9866 4 19 5.93089 19 8.31555V21.5354C19 22.3443 18.3443 23 17.5354 23H11.4646C10.6557 23 10 22.3443 10 21.5354V8.31555C10 5.93089 12.0134 4 14.5 4Z" stroke="white" stroke-width="1.5" stroke-linecap="round" stroke-linejoin="round"/>
<path d="M4.79248 15.7061C5.08541 13.6361 5.27093 12.0152 5.39787 10.8826C5.5541 9.3984 5.63221 8.65631 5.65174 8.42197C5.81773 6.5277 5.76891 6.30312 5.95443 5.61962C6.12042 4.9947 6.40359 3.94992 7.29214 2.98326C8.2881 1.87989 9.47934 1.49909 10.0164 1.33309C10.9049 1.05969 11.629 1.00985 12 1.00008C12 1.00008 12.8867 1.00012 13.5 1.00012M21 1.00006C20.7641 1.00006 18.2931 1.00007 16 1.00007M13.5 3.50006V1.33313V1.00012M15.5 3.50002V1.50006V1.00007M22 5.00006L16 1.00007M13.5 1.00012C14.1449 1.00012 14.5403 1.00008 15.5 1.00007M15.5 1.00007C15.6651 1.00007 15.8321 1.00007 16 1.00007" stroke="white" stroke-width="1.5" stroke-linecap="round" stroke-linejoin="round"/>
<path d="M10 18.9999H19" stroke="white" stroke-width="1.5" stroke-linecap="round" stroke-linejoin="round"/>
<path d="M10 9.99994H19" stroke="white" stroke-width="1.5" stroke-linecap="round" stroke-linejoin="round"/>
<path d="M5.1141 15.8604C5.61508 15.9393 5.97224 16.3886 5.9361 16.8945L5.57466 21.9547C5.53431 22.5197 5.02332 22.9319 4.46262 22.8518L3.02967 22.6471C2.47182 22.5674 2.09704 22.0333 2.21178 21.4816L3.24646 16.5064C3.35249 15.9966 3.83997 15.6597 4.35438 15.7407L5.1141 15.8604Z" stroke="white" stroke-width="1.5" stroke-linecap="round" stroke-linejoin="round"/>
</svg>
