<svg width="24" height="24" viewBox="0 0 24 24" fill="none" xmlns="http://www.w3.org/2000/svg">
<path d="M9 14H10.5193C10.8319 14 11.1368 14.0977 11.3912 14.2794L15.6281 17.3058C16.6209 18.015 18 17.3053 18 16.0852V5.91478C18 4.69473 16.6209 3.98504 15.6281 4.69418L11.3912 7.7206C11.1368 7.90232 10.8319 8 10.5193 8H9H2.5C1.67157 8 1 8.67157 1 9.5V12.5C1 13.3284 1.67157 14 2.5 14H6M9 14H6M9 14V19.5C9 20.3284 8.32843 21 7.5 21V21C6.67157 21 6 20.3284 6 19.5V14" stroke="white" stroke-width="1.5" stroke-linecap="round"/>
<path d="M20 11H22M20 7L22 6M20 15L22 16" stroke="white" stroke-width="1.5" stroke-linecap="round"/>
</svg>
