<svg width="24" height="24" viewBox="0 0 24 24" fill="none" xmlns="http://www.w3.org/2000/svg">
<path d="M11.509 3.98218C6.25583 3.98218 2 8.23801 2 13.4911C2 18.7443 6.25583 23.0001 11.509 23.0001C16.7621 23.0001 21.0179 18.7443 21.0179 13.4911C21.0179 12.1285 20.7217 10.8251 20.2082 9.65004C17.3052 10.9337 14.412 12.2075 11.509 13.4911V3.98218Z" stroke="white" stroke-width="1.5" stroke-linecap="round" stroke-linejoin="round"/>
<path d="M14.1359 9.41292C16.6933 8.28725 19.2507 7.16157 21.8082 6.02603C21.7292 5.84829 21.6403 5.67055 21.5515 5.49281C21.5317 5.45332 21.512 5.41382 21.4823 5.36445C21.3737 5.17684 21.2651 4.98922 21.1466 4.81149C21.0874 4.72262 21.0183 4.62387 20.9491 4.52513C20.88 4.42639 20.801 4.32765 20.7319 4.2289C20.6529 4.13016 20.5739 4.03142 20.485 3.9228C20.406 3.83393 20.3172 3.73519 20.2382 3.64632C20.1493 3.54757 20.0604 3.4587 19.9617 3.35996C19.863 3.27109 19.7642 3.18222 19.6655 3.09336C19.5667 3.00449 19.4581 2.91562 19.3495 2.82675C19.2507 2.74775 19.1421 2.66876 19.0335 2.58977C18.9051 2.5009 18.7768 2.41203 18.6385 2.32316C18.5299 2.25404 18.4213 2.18492 18.3028 2.1158C18.1843 2.04668 18.0757 1.98743 17.9572 1.92819C17.8486 1.86894 17.7301 1.81957 17.6116 1.76032C17.4832 1.70108 17.3648 1.6517 17.2364 1.60233C17.1278 1.56284 17.0192 1.52334 16.9105 1.48384C16.7723 1.43447 16.6439 1.3851 16.5156 1.3456C16.3971 1.31598 16.2786 1.28636 16.17 1.25673C15.9626 1.20736 15.7651 1.15799 15.5676 1.12837C15.4393 1.10862 15.3109 1.08887 15.1825 1.06912C15.0838 1.05925 14.985 1.0395 14.8962 1.0395C14.6691 1.01975 14.442 1.00987 14.205 1C14.1852 1 14.1556 1 14.126 1V9.3833L14.1359 9.41292Z" stroke="white" stroke-width="1.5" stroke-linecap="round" stroke-linejoin="round"/>
</svg>
