<svg width="24" height="24" viewBox="0 0 24 24" fill="none" xmlns="http://www.w3.org/2000/svg">
<path d="M20.1526 7.98341C20.1557 7.98029 20.1571 7.97586 20.1565 7.9715C19.7883 5.47766 18.3915 3.42904 15.9463 1.99362C15.0446 1.46846 14.0141 1.14147 12.9737 1.04239C10.0705 0.78476 7.70232 1.70627 5.91876 3.67809C4.27392 5.49138 3.58032 7.63165 3.79831 10.0692C3.89739 11.1393 4.18474 11.9122 4.28383 12.1698C4.60091 13.0121 5.00716 13.6462 5.33415 14.0822C7.35366 16.7869 9.38136 19.4916 11.4023 22.1963C11.7022 22.5976 12.3037 22.5979 12.6039 22.1969L18.5226 14.2903C18.9784 13.7057 19.672 12.6553 20.0287 11.169C20.1276 10.7634 20.3748 9.54767 20.1486 7.99535C20.148 7.99099 20.1495 7.98653 20.1526 7.98341V7.98341Z" stroke="white" stroke-width="1.5" stroke-linecap="round" stroke-linejoin="round"/>
<path d="M13.5991 11.438H10.3981L9.84806 13H8.53906L11.2781 5.34399H12.7301L15.4691 13H14.1491L13.5991 11.438ZM13.2471 10.415L12.0041 6.86199L10.7501 10.415H13.2471Z" fill="white"/>
</svg>
