<svg width="24" height="24" viewBox="0 0 24 24" fill="none" xmlns="http://www.w3.org/2000/svg">
<path d="M2 8V4.5C2 3.67157 2.67157 3 3.5 3H7M2 16V19.5C2 20.3284 2.67157 21 3.5 21H7M17 3L20.5 3C21.3284 3 22 3.67157 22 4.5V8M17 21H20.5C21.3284 21 22 20.3284 22 19.5V16" stroke="white" stroke-width="1.5" stroke-linecap="round"/>
<path d="M15.31 7.5L14.8795 6.43692C14.6501 5.8706 14.1002 5.5 13.4892 5.5H10.3015C9.69522 5.5 9.14851 5.86503 8.91611 6.42505L8.47001 7.5H6.5C5.67157 7.5 5 8.17157 5 9V16.5C5 17.3284 5.67157 18 6.5 18H17.5C18.3284 18 19 17.3284 19 16.5V9C19 8.17157 18.3284 7.5 17.5 7.5H15.31Z" stroke="white" stroke-width="1.5" stroke-linecap="round" stroke-linejoin="round"/>
<path d="M12 15.5C13.6569 15.5 15 14.1569 15 12.5C15 10.8431 13.6569 9.5 12 9.5C10.3431 9.5 9 10.8431 9 12.5C9 14.1569 10.3431 15.5 12 15.5Z" stroke="white" stroke-width="1.5" stroke-linecap="round" stroke-linejoin="round"/>
</svg>
