<svg width="24" height="24" viewBox="0 0 24 24" fill="none" xmlns="http://www.w3.org/2000/svg">
<path d="M16 3L15.2644 1.74258C14.9954 1.28267 14.5025 1 13.9697 1H9.92705C9.35889 1 8.8395 1.321 8.58541 1.82918L8 3H4.5C3.67157 3 3 3.67157 3 4.5V11.49C3 12.3184 3.67157 12.99 4.5 12.99H19.5C20.3284 12.99 21 12.3184 21 11.49V4.5C21 3.67157 20.3284 3 19.5 3H16Z" stroke="white" stroke-width="1.5" stroke-linecap="round" stroke-linejoin="round"/>
<path d="M12.03 10.56C13.7034 10.56 15.06 9.20342 15.06 7.53C15.06 5.85658 13.7034 4.5 12.03 4.5C10.3566 4.5 9 5.85658 9 7.53C9 9.20342 10.3566 10.56 12.03 10.56Z" stroke="white" stroke-width="1.5" stroke-linecap="round" stroke-linejoin="round"/>
<path d="M14.8089 15.0099C14.2829 16.0124 13.2308 16.6973 12.0199 16.6973C10.8089 16.6973 9.75683 16.0124 9.23077 15M17.4193 16.4093C16.397 18.3448 14.3623 19.655 12.0198 19.655C9.67739 19.655 7.61287 18.325 6.60046 16.3696M20 17.7793C18.4814 20.6378 15.4739 22.5833 12.0199 22.5833C8.56576 22.5833 5.50868 20.6081 4 17.7197" stroke="white" stroke-width="1.5" stroke-linecap="round" stroke-linejoin="round"/>
</svg>
